<svg xmlns="http://www.w3.org/2000/svg" xmlns:xlink="http://www.w3.org/1999/xlink" width="500" zoomAndPan="magnify" viewBox="0 0 375 374.999991" height="500" preserveAspectRatio="xMidYMid meet" version="1.0"><defs><g/><clipPath id="id1"><path d="M 44.777344 48.390625 L 330.527344 48.390625 L 330.527344 334.140625 L 44.777344 334.140625 Z M 44.777344 48.390625 " clip-rule="nonzero"/></clipPath></defs><g clip-path="url(#id1)"><path fill="#8c52ff" d="M 187.652344 48.390625 C 108.746094 48.390625 44.777344 112.355469 44.777344 191.265625 C 44.777344 270.171875 108.746094 334.140625 187.652344 334.140625 C 266.5625 334.140625 330.527344 270.171875 330.527344 191.265625 C 330.527344 112.355469 266.5625 48.390625 187.652344 48.390625 " fill-opacity="1" fill-rule="nonzero"/></g><g fill="#ffffff" fill-opacity="1"><g transform="translate(102.627684, 285.983691)"><g><path d="M 88.5625 1.683594 C 108.632812 1.683594 127.632812 -6.589844 141.269531 -20.226562 C 155.210938 -34.167969 163.179688 -52.707031 163.179688 -72.933594 C 163.179688 -93.15625 154.90625 -112.003906 141.269531 -125.945312 C 127.632812 -139.582031 108.632812 -147.859375 88.5625 -147.859375 C 82.433594 -147.859375 75.996094 -146.476562 69.410156 -143.875 C 62.515625 -141.269531 57.609375 -138.050781 54.394531 -134.222656 L 54.394531 -181.257812 C 54.394531 -187.234375 52.402344 -192.597656 48.722656 -196.429688 C 45.046875 -200.105469 39.683594 -202.402344 34.167969 -202.402344 C 28.652344 -202.402344 23.289062 -200.105469 19.613281 -196.429688 C 15.933594 -192.597656 13.636719 -187.234375 13.636719 -181.257812 L 13.636719 -72.933594 C 13.636719 -52.707031 21.757812 -33.863281 35.699219 -20.226562 C 49.644531 -6.28125 68.335938 1.683594 88.5625 1.683594 Z M 88.5625 -39.222656 C 79.367188 -39.222656 70.789062 -42.902344 64.660156 -49.03125 C 58.375 -55.3125 54.546875 -63.738281 54.546875 -72.933594 C 54.546875 -82.125 58.375 -90.554688 64.660156 -96.835938 C 70.789062 -102.964844 79.367188 -106.640625 88.5625 -106.640625 C 97.753906 -106.640625 106.335938 -102.964844 112.464844 -96.835938 C 118.746094 -90.554688 122.421875 -82.125 122.421875 -72.933594 C 122.421875 -63.738281 118.746094 -55.3125 112.464844 -49.03125 C 106.335938 -42.902344 97.753906 -39.222656 88.5625 -39.222656 Z M 88.5625 -39.222656 "/></g></g></g></svg>