<svg xmlns="http://www.w3.org/2000/svg" xmlns:xlink="http://www.w3.org/1999/xlink" width="500" zoomAndPan="magnify" viewBox="0 0 375 374.999991" height="500" preserveAspectRatio="xMidYMid meet" version="1.0"><defs><g/><clipPath id="id1"><path d="M 112 131.378906 L 366 131.378906 L 366 183.878906 L 112 183.878906 Z M 112 131.378906 " clip-rule="nonzero"/></clipPath><clipPath id="id2"><path d="M 4.640625 113.839844 L 92.390625 113.839844 L 92.390625 201.589844 L 4.640625 201.589844 Z M 4.640625 113.839844 " clip-rule="nonzero"/></clipPath><clipPath id="id3"><path d="M 7 122 L 92.390625 122 L 92.390625 201.589844 L 7 201.589844 Z M 7 122 " clip-rule="nonzero"/></clipPath><clipPath id="id4"><path d="M 4.640625 113.839844 L 67 113.839844 L 67 201 L 4.640625 201 Z M 4.640625 113.839844 " clip-rule="nonzero"/></clipPath></defs><g clip-path="url(#id1)"><path fill="#000000" d="M 185.730469 131.378906 C 184.328125 131.378906 183.199219 132.503906 183.199219 133.902344 L 183.199219 179.335938 C 183.199219 180.734375 184.328125 181.859375 185.730469 181.859375 L 218.636719 181.859375 C 224.75 181.859375 233.824219 177.816406 233.824219 166.714844 C 233.824219 160.269531 230.738281 156.265625 227.003906 153.996094 C 228.070312 151.964844 228.761719 149.519531 228.761719 146.523438 C 228.761719 135.421875 219.6875 131.378906 213.574219 131.378906 Z M 256.605469 131.378906 C 255.203125 131.378906 254.074219 132.503906 254.074219 133.902344 L 254.074219 179.335938 C 254.074219 180.734375 255.203125 181.859375 256.605469 181.859375 L 294 181.859375 C 294.554688 181.859375 295.089844 181.542969 295.347656 181.011719 L 299.578125 172.472656 C 299.757812 172.160156 299.519531 171.765625 299.144531 171.765625 L 264.199219 171.765625 L 264.199219 164.191406 C 264.199219 162.792969 265.328125 161.667969 266.730469 161.667969 L 283.816406 161.667969 C 284.390625 161.667969 284.90625 161.351562 285.160156 160.820312 L 289.453125 152.300781 C 289.632812 151.964844 289.375 151.570312 289.019531 151.570312 L 264.199219 151.570312 L 264.199219 141.476562 L 293.863281 141.476562 C 294.417969 141.476562 294.929688 141.160156 295.207031 140.667969 L 299.578125 132.109375 C 299.757812 131.773438 299.519531 131.378906 299.144531 131.378906 Z M 317.335938 131.378906 C 315.933594 131.378906 314.824219 132.503906 314.824219 133.902344 L 314.824219 180.339844 C 314.824219 181.167969 315.515625 181.859375 316.347656 181.859375 L 324.949219 181.859375 L 324.949219 171.765625 C 324.949219 168.984375 327.222656 166.714844 330.011719 166.714844 L 345.121094 166.714844 L 353.722656 181.089844 C 354 181.5625 354.496094 181.859375 355.027344 181.859375 L 364.957031 181.859375 C 365.332031 181.859375 365.570312 181.445312 365.371094 181.089844 L 355.859375 165 C 361.832031 162.378906 365.449219 156.71875 365.449219 149.046875 C 365.449219 138.320312 358.488281 131.378906 347.730469 131.378906 Z M 113.847656 131.753906 C 113.015625 131.753906 112.324219 132.445312 112.324219 133.273438 L 112.324219 161.667969 C 112.324219 169.300781 117.625 183.753906 137.636719 183.753906 C 157.648438 183.753906 162.949219 169.300781 162.949219 161.667969 L 162.949219 131.753906 L 154.347656 131.753906 C 153.515625 131.753906 152.824219 132.445312 152.824219 133.273438 L 152.824219 161.609375 C 152.785156 163.621094 151.875 173.65625 137.636719 173.65625 C 123.398438 173.65625 122.488281 163.640625 122.449219 161.667969 L 122.449219 131.753906 Z M 193.324219 141.476562 L 213.515625 141.476562 C 215.847656 141.535156 218.636719 142.460938 218.636719 146.523438 C 218.636719 150.289062 216.246094 151.355469 214.089844 151.550781 C 213.8125 151.550781 213.695312 151.550781 213.515625 151.570312 L 193.324219 151.570312 Z M 324.949219 141.476562 L 347.730469 141.476562 C 354.535156 141.476562 355.324219 145.792969 355.324219 149.046875 C 355.324219 152.300781 354.535156 156.621094 347.730469 156.621094 L 324.949219 156.621094 Z M 195.855469 161.667969 L 218.578125 161.667969 C 220.910156 161.726562 223.699219 162.652344 223.699219 166.714844 C 223.699219 170.777344 220.910156 171.703125 218.578125 171.765625 L 193.324219 171.765625 L 193.324219 164.191406 C 193.324219 162.792969 194.453125 161.667969 195.855469 161.667969 Z M 195.855469 161.667969 " fill-opacity="1" fill-rule="nonzero"/></g><g clip-path="url(#id2)"><path fill="#0b0b0b" d="M 92.390625 157.710938 C 92.390625 181.945312 72.746094 201.585938 48.515625 201.585938 C 24.28125 201.585938 4.640625 181.945312 4.640625 157.710938 C 4.640625 133.480469 24.28125 113.839844 48.515625 113.839844 C 72.746094 113.839844 92.390625 133.480469 92.390625 157.710938 " fill-opacity="1" fill-rule="nonzero"/></g><g clip-path="url(#id3)"><path fill="#0e0f0e" d="M 74.703125 122.507812 C 76.828125 127.664062 78.003906 133.3125 78.003906 139.234375 C 78.003906 163.464844 58.363281 183.109375 34.132812 183.109375 C 24.316406 183.109375 15.253906 179.882812 7.945312 174.4375 C 14.519531 190.371094 30.207031 201.585938 48.515625 201.585938 C 72.746094 201.585938 92.390625 181.945312 92.390625 157.710938 C 92.390625 143.296875 85.4375 130.507812 74.703125 122.507812 " fill-opacity="1" fill-rule="nonzero"/></g><path fill="#231f20" d="M 84.804688 160.324219 C 84.804688 178.847656 69.789062 193.863281 51.269531 193.863281 C 32.746094 193.863281 17.730469 178.847656 17.730469 160.324219 C 17.730469 141.804688 32.746094 126.785156 51.269531 126.785156 C 69.789062 126.785156 84.804688 141.804688 84.804688 160.324219 " fill-opacity="1" fill-rule="nonzero"/><g clip-path="url(#id4)"><path fill="#231f20" d="M 11.78125 160.261719 C 11.78125 136.03125 31.425781 116.390625 55.65625 116.390625 C 59.503906 116.390625 63.230469 116.886719 66.789062 117.816406 C 61.222656 115.261719 55.035156 113.839844 48.515625 113.839844 C 24.28125 113.839844 4.640625 133.480469 4.640625 157.710938 C 4.640625 178.097656 18.542969 195.234375 37.382812 200.160156 C 22.277344 193.230469 11.78125 177.972656 11.78125 160.261719 " fill-opacity="1" fill-rule="nonzero"/></g><path fill="#ffffff" d="M 80.816406 157.710938 C 80.816406 175.550781 66.355469 190.015625 48.515625 190.015625 C 30.675781 190.015625 16.210938 175.550781 16.210938 157.710938 C 16.210938 139.871094 30.675781 125.410156 48.515625 125.410156 C 66.355469 125.410156 80.816406 139.871094 80.816406 157.710938 " fill-opacity="1" fill-rule="nonzero"/><path fill="#0a0c0d" d="M 57.699219 166.894531 L 39.332031 166.894531 L 39.332031 148.527344 L 57.699219 148.527344 L 57.699219 166.894531 " fill-opacity="1" fill-rule="nonzero"/><path fill="#0a0c0d" d="M 16.210938 159.003906 L 48.515625 159.003906 L 48.515625 156.421875 L 16.210938 156.421875 Z M 16.210938 159.003906 " fill-opacity="1" fill-rule="nonzero"/><g fill="#000000" fill-opacity="1"><g transform="translate(146.720511, 253.376212)"><g><path d="M 12.875 -4.03125 C 14 -4.03125 14.941406 -4.257812 15.703125 -4.71875 C 16.472656 -5.175781 17.09375 -5.769531 17.5625 -6.5 C 18.039062 -7.238281 18.375 -8.082031 18.5625 -9.03125 C 18.757812 -9.988281 18.859375 -10.972656 18.859375 -11.984375 L 18.859375 -24.4375 L 23.578125 -24.4375 L 23.578125 -11.984375 C 23.578125 -10.304688 23.375 -8.734375 22.96875 -7.265625 C 22.570312 -5.796875 21.941406 -4.507812 21.078125 -3.40625 C 20.222656 -2.300781 19.117188 -1.425781 17.765625 -0.78125 C 16.410156 -0.144531 14.789062 0.171875 12.90625 0.171875 C 10.957031 0.171875 9.300781 -0.164062 7.9375 -0.84375 C 6.570312 -1.519531 5.460938 -2.414062 4.609375 -3.53125 C 3.765625 -4.644531 3.148438 -5.9375 2.765625 -7.40625 C 2.390625 -8.875 2.203125 -10.398438 2.203125 -11.984375 L 2.203125 -24.4375 L 6.953125 -24.4375 L 6.953125 -11.984375 C 6.953125 -10.953125 7.046875 -9.957031 7.234375 -9 C 7.429688 -8.050781 7.765625 -7.207031 8.234375 -6.46875 C 8.710938 -5.738281 9.328125 -5.148438 10.078125 -4.703125 C 10.835938 -4.253906 11.769531 -4.03125 12.875 -4.03125 Z M 12.875 -4.03125 "/></g></g></g><g fill="#000000" fill-opacity="1"><g transform="translate(172.534485, 253.376212)"><g><path d="M 12.359375 0.34375 C 10.984375 0.34375 9.753906 0.0351562 8.671875 -0.578125 C 7.597656 -1.203125 6.75 -2.050781 6.125 -3.125 L 6.125 0 L 2.09375 0 L 2.09375 -25.125 L 6.71875 -25.125 L 6.71875 -14.875 C 7.351562 -15.96875 8.191406 -16.816406 9.234375 -17.421875 C 10.285156 -18.035156 11.507812 -18.34375 12.90625 -18.34375 C 14.070312 -18.34375 15.140625 -18.085938 16.109375 -17.578125 C 17.078125 -17.078125 17.910156 -16.398438 18.609375 -15.546875 C 19.304688 -14.703125 19.84375 -13.707031 20.21875 -12.5625 C 20.601562 -11.414062 20.796875 -10.210938 20.796875 -8.953125 C 20.796875 -7.640625 20.582031 -6.421875 20.15625 -5.296875 C 19.726562 -4.171875 19.132812 -3.1875 18.375 -2.34375 C 17.625 -1.507812 16.726562 -0.851562 15.6875 -0.375 C 14.65625 0.101562 13.546875 0.34375 12.359375 0.34375 Z M 11.078125 -3.578125 C 11.816406 -3.578125 12.492188 -3.71875 13.109375 -4 C 13.734375 -4.289062 14.265625 -4.675781 14.703125 -5.15625 C 15.140625 -5.644531 15.476562 -6.207031 15.71875 -6.84375 C 15.957031 -7.488281 16.078125 -8.179688 16.078125 -8.921875 C 16.078125 -9.648438 15.960938 -10.347656 15.734375 -11.015625 C 15.503906 -11.679688 15.175781 -12.265625 14.75 -12.765625 C 14.320312 -13.273438 13.820312 -13.675781 13.25 -13.96875 C 12.675781 -14.269531 12.046875 -14.421875 11.359375 -14.421875 C 10.328125 -14.421875 9.398438 -14.082031 8.578125 -13.40625 C 7.765625 -12.726562 7.144531 -11.894531 6.71875 -10.90625 L 6.71875 -6.609375 C 6.875 -6.148438 7.101562 -5.734375 7.40625 -5.359375 C 7.71875 -4.992188 8.066406 -4.679688 8.453125 -4.421875 C 8.847656 -4.160156 9.273438 -3.953125 9.734375 -3.796875 C 10.203125 -3.648438 10.648438 -3.578125 11.078125 -3.578125 Z M 11.078125 -3.578125 "/></g></g></g><g fill="#000000" fill-opacity="1"><g transform="translate(194.355894, 253.376212)"><g><path d="M 10.46875 0.34375 C 9.019531 0.34375 7.707031 0.0976562 6.53125 -0.390625 C 5.363281 -0.890625 4.367188 -1.5625 3.546875 -2.40625 C 2.722656 -3.257812 2.085938 -4.25 1.640625 -5.375 C 1.191406 -6.5 0.96875 -7.679688 0.96875 -8.921875 C 0.96875 -10.203125 1.179688 -11.410156 1.609375 -12.546875 C 2.046875 -13.679688 2.675781 -14.675781 3.5 -15.53125 C 4.332031 -16.394531 5.335938 -17.078125 6.515625 -17.578125 C 7.703125 -18.085938 9.03125 -18.34375 10.5 -18.34375 C 11.96875 -18.34375 13.28125 -18.085938 14.4375 -17.578125 C 15.59375 -17.078125 16.578125 -16.398438 17.390625 -15.546875 C 18.210938 -14.703125 18.832031 -13.71875 19.25 -12.59375 C 19.675781 -11.46875 19.890625 -10.300781 19.890625 -9.09375 C 19.890625 -8.789062 19.882812 -8.5 19.875 -8.21875 C 19.863281 -7.945312 19.835938 -7.71875 19.796875 -7.53125 L 5.859375 -7.53125 C 5.921875 -6.820312 6.085938 -6.191406 6.359375 -5.640625 C 6.640625 -5.085938 7 -4.617188 7.4375 -4.234375 C 7.875 -3.847656 8.363281 -3.550781 8.90625 -3.34375 C 9.457031 -3.132812 10.035156 -3.03125 10.640625 -3.03125 C 11.554688 -3.03125 12.421875 -3.253906 13.234375 -3.703125 C 14.046875 -4.148438 14.601562 -4.738281 14.90625 -5.46875 L 18.859375 -4.375 C 18.191406 -3 17.128906 -1.867188 15.671875 -0.984375 C 14.222656 -0.0976562 12.488281 0.34375 10.46875 0.34375 Z M 15.140625 -10.53125 C 15.023438 -11.882812 14.523438 -12.96875 13.640625 -13.78125 C 12.765625 -14.601562 11.695312 -15.015625 10.4375 -15.015625 C 9.8125 -15.015625 9.226562 -14.90625 8.6875 -14.6875 C 8.144531 -14.46875 7.664062 -14.160156 7.25 -13.765625 C 6.84375 -13.378906 6.507812 -12.910156 6.25 -12.359375 C 5.988281 -11.804688 5.832031 -11.195312 5.78125 -10.53125 Z M 15.140625 -10.53125 "/></g></g></g><g fill="#000000" fill-opacity="1"><g transform="translate(214.972656, 253.376212)"><g><path d="M 12.84375 -14.046875 C 11.4375 -14.023438 10.179688 -13.753906 9.078125 -13.234375 C 7.984375 -12.710938 7.195312 -11.9375 6.71875 -10.90625 L 6.71875 0 L 2.09375 0 L 2.09375 -18.03125 L 6.328125 -18.03125 L 6.328125 -14.1875 C 6.648438 -14.800781 7.03125 -15.351562 7.46875 -15.84375 C 7.90625 -16.34375 8.375 -16.773438 8.875 -17.140625 C 9.382812 -17.503906 9.894531 -17.785156 10.40625 -17.984375 C 10.925781 -18.179688 11.425781 -18.28125 11.90625 -18.28125 C 12.15625 -18.28125 12.34375 -18.28125 12.46875 -18.28125 C 12.601562 -18.28125 12.726562 -18.269531 12.84375 -18.25 Z M 12.84375 -14.046875 "/></g></g></g></svg>