<svg xmlns="http://www.w3.org/2000/svg" xmlns:xlink="http://www.w3.org/1999/xlink" width="500" zoomAndPan="magnify" viewBox="0 0 375 374.999991" height="500" preserveAspectRatio="xMidYMid meet" version="1.0"><defs><g/><clipPath id="id1"><path d="M 26.207031 121 L 73 121 L 73 183 L 26.207031 183 Z M 26.207031 121 " clip-rule="nonzero"/></clipPath><clipPath id="id2"><path d="M 220 136 L 267 136 L 267 197.75 L 220 197.75 Z M 220 136 " clip-rule="nonzero"/></clipPath><clipPath id="id3"><path d="M 325 125 L 348.707031 125 L 348.707031 183 L 325 183 Z M 325 125 " clip-rule="nonzero"/></clipPath></defs><g clip-path="url(#id1)"><path fill="#45535e" d="M 26.183594 121.535156 L 37.429688 121.535156 L 37.429688 146.523438 L 61.144531 146.523438 L 61.144531 121.535156 L 72.402344 121.535156 L 72.402344 182.875 L 61.144531 182.875 L 61.144531 157.359375 L 37.429688 157.359375 L 37.429688 182.875 L 26.183594 182.875 Z M 26.183594 121.535156 " fill-opacity="1" fill-rule="nonzero"/></g><path fill="#45535e" d="M 108.023438 162.894531 C 108.023438 168.03125 103.84375 172.210938 98.707031 172.210938 C 93.574219 172.210938 89.398438 168.03125 89.398438 162.894531 L 89.398438 136.484375 L 78.734375 136.484375 L 78.734375 162.894531 C 78.734375 173.910156 87.695312 182.875 98.707031 182.875 C 109.726562 182.875 118.6875 173.910156 118.6875 162.894531 L 118.6875 136.484375 L 108.023438 136.484375 L 108.023438 162.894531 " fill-opacity="1" fill-rule="nonzero"/><path fill="#45535e" d="M 148.457031 136.796875 C 143.164062 136.796875 139.472656 138.332031 135.910156 141.832031 L 135.910156 121.535156 L 125.207031 121.535156 L 125.207031 159.152344 C 125.207031 173.230469 135.386719 182.875 146.820312 182.875 C 159.53125 182.875 170.671875 173.058594 170.671875 159.835938 C 170.671875 146.777344 160.398438 136.796875 148.457031 136.796875 Z M 148.722656 172.972656 C 141.472656 172.972656 135.929688 166.917969 135.929688 159.835938 C 135.929688 152.75 141.472656 146.691406 148.722656 146.691406 C 154.863281 146.691406 160.410156 152.75 160.410156 159.835938 C 160.410156 166.917969 154.863281 172.972656 148.722656 172.972656 Z M 148.722656 172.972656 " fill-opacity="1" fill-rule="nonzero"/><path fill="#45535e" d="M 188.636719 139.492188 C 188.636719 134.113281 192.222656 132.40625 196.144531 132.40625 C 199.300781 132.40625 203.484375 134.796875 206.210938 137.699219 L 213.203125 129.507812 C 209.707031 124.8125 202.625 121.570312 196.832031 121.570312 C 185.222656 121.570312 176.863281 128.3125 176.863281 139.492188 C 176.863281 160.226562 202.375 153.652344 202.375 165.261719 C 202.375 168.839844 198.878906 172 194.867188 172 C 188.554688 172 186.507812 168.925781 183.605469 165.6875 L 175.84375 173.703125 C 180.792969 179.765625 186.929688 182.839844 194.269531 182.839844 C 205.273438 182.839844 214.148438 176.007812 214.148438 165.34375 C 214.148438 142.304688 188.636719 149.472656 188.636719 139.492188 " fill-opacity="1" fill-rule="nonzero"/><g clip-path="url(#id2)"><path fill="#45535e" d="M 242.308594 136.195312 C 230.875 136.195312 220.699219 145.832031 220.699219 159.914062 L 220.699219 197.632812 L 231.398438 197.632812 L 231.398438 177.238281 C 234.964844 180.734375 238.65625 182.269531 243.945312 182.269531 C 255.890625 182.269531 266.164062 172.292969 266.164062 159.234375 C 266.164062 146.007812 255.019531 136.195312 242.308594 136.195312 Z M 244.210938 172.375 C 236.960938 172.375 231.417969 166.308594 231.417969 159.234375 C 231.417969 152.148438 236.960938 146.089844 244.210938 146.089844 C 250.351562 146.089844 255.902344 152.148438 255.902344 159.234375 C 255.902344 166.308594 250.351562 172.375 244.210938 172.375 Z M 244.210938 172.375 " fill-opacity="1" fill-rule="nonzero"/></g><g clip-path="url(#id3)"><path fill="#45535e" d="M 344.910156 172.972656 C 338.597656 172.972656 336.808594 170.242188 336.808594 166.0625 L 336.808594 147.546875 L 346.617188 147.546875 L 346.617188 138.160156 L 336.808594 138.160156 L 336.808594 125.789062 L 325.976562 130.648438 L 325.976562 168.367188 C 325.976562 178.011719 332.628906 182.875 341.753906 182.875 C 343.117188 182.875 345 182.789062 346.019531 182.535156 L 348.664062 172.808594 C 347.472656 172.890625 346.109375 172.972656 344.910156 172.972656 " fill-opacity="1" fill-rule="nonzero"/></g><path fill="#f8761f" d="M 316.699219 148.09375 C 314.644531 144.5625 311.761719 141.734375 308.15625 139.601562 C 305.460938 138.035156 302.664062 137.039062 299.515625 136.609375 L 299.515625 125.394531 C 302.664062 124.058594 304.617188 121.097656 304.617188 117.644531 C 304.617188 112.933594 300.84375 109.121094 296.140625 109.121094 C 291.433594 109.121094 287.597656 112.933594 287.597656 117.644531 C 287.597656 121.097656 289.4375 124.058594 292.585938 125.394531 L 292.585938 136.613281 C 290.066406 136.980469 287.453125 137.765625 285.066406 138.972656 C 280.195312 135.269531 264.214844 123.125 254.867188 116.03125 C 255.089844 115.230469 255.257812 114.40625 255.257812 113.539062 C 255.257812 108.324219 251.039062 104.097656 245.824219 104.097656 C 240.609375 104.097656 236.386719 108.324219 236.386719 113.539062 C 236.386719 118.75 240.613281 122.980469 245.824219 122.980469 C 247.605469 122.980469 249.25 122.457031 250.675781 121.601562 L 252.644531 123.097656 L 279.75 142.636719 C 278.320312 143.953125 276.984375 145.449219 275.914062 147.128906 C 273.753906 150.554688 272.429688 154.320312 272.429688 158.429688 L 272.429688 159.289062 C 272.429688 162.171875 272.976562 164.898438 273.910156 167.453125 C 274.734375 169.6875 275.933594 171.71875 277.425781 173.558594 L 268.425781 182.578125 C 267.628906 182.285156 266.792969 182.121094 265.917969 182.121094 C 263.972656 182.121094 262.144531 182.882812 260.765625 184.261719 C 259.386719 185.636719 258.628906 187.46875 258.628906 189.414062 C 258.628906 191.367188 259.390625 193.195312 260.765625 194.574219 C 262.144531 195.957031 263.976562 196.71875 265.921875 196.71875 C 267.875 196.71875 269.710938 195.957031 271.082031 194.574219 C 272.460938 193.195312 273.21875 191.367188 273.21875 189.414062 C 273.21875 188.667969 273.105469 187.929688 272.882812 187.230469 L 282.179688 177.925781 C 283.460938 178.804688 284.832031 179.550781 286.3125 180.191406 C 289.234375 181.453125 292.460938 182.222656 295.980469 182.222656 L 296.628906 182.222656 C 300.527344 182.222656 304.207031 181.308594 307.664062 179.429688 C 311.304688 177.453125 314.160156 174.742188 316.3125 171.285156 C 318.480469 167.816406 319.671875 163.988281 319.671875 159.777344 L 319.671875 159.566406 C 319.671875 155.421875 318.714844 151.597656 316.699219 148.09375 Z M 305.335938 167.605469 C 302.808594 170.414062 299.910156 172.140625 296.628906 172.140625 L 296.089844 172.140625 C 294.21875 172.140625 292.382812 171.625 290.589844 170.679688 C 288.566406 169.644531 287.03125 168.164062 285.769531 166.289062 C 284.472656 164.453125 283.769531 162.445312 283.769531 160.316406 L 283.769531 159.671875 C 283.769531 157.578125 284.171875 155.59375 285.179688 153.71875 C 286.261719 151.671875 287.722656 150.078125 289.664062 148.8125 C 291.570312 147.554688 293.605469 146.9375 295.878906 146.9375 L 296.089844 146.9375 C 298.148438 146.9375 300.09375 147.34375 301.933594 148.285156 C 303.804688 149.289062 305.335938 150.660156 306.519531 152.460938 C 307.671875 154.265625 308.359375 156.207031 308.578125 158.328125 C 308.609375 158.769531 308.628906 159.21875 308.628906 159.648438 C 308.628906 162.527344 307.535156 165.1875 305.335938 167.605469 Z M 305.335938 167.605469 " fill-opacity="1" fill-rule="nonzero"/><g fill="#000000" fill-opacity="1"><g transform="translate(102.211897, 261.887942)"><g><path d="M 27.046875 -28.609375 L 27.046875 0 L 21.515625 0 L 21.515625 -12.203125 L 8.546875 -12.203125 L 8.546875 0 L 2.984375 0 L 2.984375 -28.609375 L 8.546875 -28.609375 L 8.546875 -17.046875 L 21.515625 -17.046875 L 21.515625 -28.609375 Z M 27.046875 -28.609375 "/></g></g></g><g fill="#000000" fill-opacity="1"><g transform="translate(132.224201, 261.887942)"><g><path d="M 8.90625 0.40625 C 6.726562 0.40625 5.070312 -0.289062 3.9375 -1.6875 C 2.8125 -3.082031 2.25 -5.148438 2.25 -7.890625 L 2.25 -21.109375 L 7.65625 -21.109375 L 7.65625 -9.0625 C 7.65625 -5.8125 8.820312 -4.1875 11.15625 -4.1875 C 12.207031 -4.1875 13.222656 -4.5 14.203125 -5.125 C 15.179688 -5.757812 15.984375 -6.722656 16.609375 -8.015625 L 16.609375 -21.109375 L 22 -21.109375 L 22 -6.203125 C 22 -5.640625 22.097656 -5.238281 22.296875 -5 C 22.503906 -4.757812 22.835938 -4.625 23.296875 -4.59375 L 23.296875 0 C 22.753906 0.101562 22.300781 0.164062 21.9375 0.1875 C 21.570312 0.21875 21.242188 0.234375 20.953125 0.234375 C 19.984375 0.234375 19.195312 0.015625 18.59375 -0.421875 C 17.988281 -0.867188 17.632812 -1.476562 17.53125 -2.25 L 17.40625 -3.953125 C 16.46875 -2.492188 15.257812 -1.398438 13.78125 -0.671875 C 12.300781 0.046875 10.675781 0.40625 8.90625 0.40625 Z M 8.90625 0.40625 "/></g></g></g><g fill="#000000" fill-opacity="1"><g transform="translate(157.120313, 261.887942)"><g><path d="M 14.46875 0.40625 C 12.851562 0.40625 11.414062 0.046875 10.15625 -0.671875 C 8.894531 -1.398438 7.898438 -2.398438 7.171875 -3.671875 L 7.171875 0 L 2.453125 0 L 2.453125 -29.421875 L 7.859375 -29.421875 L 7.859375 -17.40625 C 8.609375 -18.695312 9.59375 -19.695312 10.8125 -20.40625 C 12.039062 -21.125 13.472656 -21.484375 15.109375 -21.484375 C 16.484375 -21.484375 17.734375 -21.1875 18.859375 -20.59375 C 19.984375 -20 20.957031 -19.203125 21.78125 -18.203125 C 22.601562 -17.210938 23.234375 -16.046875 23.671875 -14.703125 C 24.117188 -13.359375 24.34375 -11.953125 24.34375 -10.484375 C 24.34375 -8.953125 24.09375 -7.523438 23.59375 -6.203125 C 23.09375 -4.890625 22.398438 -3.742188 21.515625 -2.765625 C 20.628906 -1.785156 19.582031 -1.007812 18.375 -0.4375 C 17.164062 0.125 15.863281 0.40625 14.46875 0.40625 Z M 12.96875 -4.1875 C 13.832031 -4.1875 14.625 -4.351562 15.34375 -4.6875 C 16.070312 -5.03125 16.691406 -5.484375 17.203125 -6.046875 C 17.710938 -6.609375 18.109375 -7.265625 18.390625 -8.015625 C 18.671875 -8.765625 18.8125 -9.570312 18.8125 -10.4375 C 18.8125 -11.289062 18.675781 -12.109375 18.40625 -12.890625 C 18.144531 -13.671875 17.765625 -14.359375 17.265625 -14.953125 C 16.765625 -15.546875 16.175781 -16.015625 15.5 -16.359375 C 14.832031 -16.710938 14.097656 -16.890625 13.296875 -16.890625 C 12.085938 -16.890625 11.003906 -16.488281 10.046875 -15.6875 C 9.097656 -14.894531 8.367188 -13.925781 7.859375 -12.78125 L 7.859375 -7.734375 C 8.046875 -7.203125 8.320312 -6.71875 8.6875 -6.28125 C 9.050781 -5.851562 9.457031 -5.484375 9.90625 -5.171875 C 10.363281 -4.867188 10.859375 -4.628906 11.390625 -4.453125 C 11.929688 -4.273438 12.457031 -4.1875 12.96875 -4.1875 Z M 12.96875 -4.1875 "/></g></g></g><g fill="#000000" fill-opacity="1"><g transform="translate(182.660973, 261.887942)"><g><path d="M 20.03125 -21.109375 C 19.84375 -21.296875 19.5 -21.550781 19 -21.875 C 18.5 -22.195312 17.894531 -22.515625 17.1875 -22.828125 C 16.476562 -23.140625 15.707031 -23.398438 14.875 -23.609375 C 14.039062 -23.828125 13.191406 -23.9375 12.328125 -23.9375 C 10.796875 -23.9375 9.65625 -23.65625 8.90625 -23.09375 C 8.15625 -22.53125 7.78125 -21.738281 7.78125 -20.71875 C 7.78125 -20.125 7.921875 -19.628906 8.203125 -19.234375 C 8.484375 -18.847656 8.890625 -18.503906 9.421875 -18.203125 C 9.960938 -17.910156 10.640625 -17.644531 11.453125 -17.40625 C 12.273438 -17.164062 13.226562 -16.910156 14.3125 -16.640625 C 15.707031 -16.265625 16.972656 -15.859375 18.109375 -15.421875 C 19.253906 -14.992188 20.222656 -14.457031 21.015625 -13.8125 C 21.804688 -13.175781 22.414062 -12.40625 22.84375 -11.5 C 23.28125 -10.601562 23.5 -9.5 23.5 -8.1875 C 23.5 -6.65625 23.207031 -5.34375 22.625 -4.25 C 22.050781 -3.164062 21.269531 -2.285156 20.28125 -1.609375 C 19.300781 -0.941406 18.171875 -0.453125 16.890625 -0.140625 C 15.617188 0.171875 14.285156 0.328125 12.890625 0.328125 C 10.742188 0.328125 8.625 0.00390625 6.53125 -0.640625 C 4.4375 -1.285156 2.554688 -2.203125 0.890625 -3.390625 L 3.34375 -8.1875 C 3.582031 -7.9375 4.015625 -7.617188 4.640625 -7.234375 C 5.273438 -6.847656 6.023438 -6.457031 6.890625 -6.0625 C 7.753906 -5.675781 8.707031 -5.347656 9.75 -5.078125 C 10.800781 -4.804688 11.875 -4.671875 12.96875 -4.671875 C 16.03125 -4.671875 17.5625 -5.648438 17.5625 -7.609375 C 17.5625 -8.234375 17.382812 -8.757812 17.03125 -9.1875 C 16.6875 -9.613281 16.191406 -9.988281 15.546875 -10.3125 C 14.910156 -10.632812 14.132812 -10.929688 13.21875 -11.203125 C 12.300781 -11.472656 11.28125 -11.769531 10.15625 -12.09375 C 8.78125 -12.46875 7.585938 -12.875 6.578125 -13.3125 C 5.578125 -13.757812 4.738281 -14.285156 4.0625 -14.890625 C 3.394531 -15.492188 2.894531 -16.191406 2.5625 -16.984375 C 2.226562 -17.773438 2.0625 -18.722656 2.0625 -19.828125 C 2.0625 -21.273438 2.328125 -22.5625 2.859375 -23.6875 C 3.398438 -24.820312 4.144531 -25.765625 5.09375 -26.515625 C 6.050781 -27.265625 7.160156 -27.832031 8.421875 -28.21875 C 9.679688 -28.613281 11.035156 -28.8125 12.484375 -28.8125 C 14.503906 -28.8125 16.359375 -28.492188 18.046875 -27.859375 C 19.742188 -27.234375 21.222656 -26.488281 22.484375 -25.625 Z M 20.03125 -21.109375 "/></g></g></g><g fill="#000000" fill-opacity="1"><g transform="translate(207.355649, 261.887942)"><g><path d="M 15.109375 0.40625 C 13.441406 0.40625 11.988281 0.0351562 10.75 -0.703125 C 9.519531 -1.441406 8.554688 -2.441406 7.859375 -3.703125 L 7.859375 8.578125 L 2.453125 8.578125 L 2.453125 -21.109375 L 7.171875 -21.109375 L 7.171875 -17.484375 C 7.953125 -18.722656 8.957031 -19.695312 10.1875 -20.40625 C 11.425781 -21.125 12.851562 -21.484375 14.46875 -21.484375 C 15.894531 -21.484375 17.210938 -21.191406 18.421875 -20.609375 C 19.628906 -20.035156 20.664062 -19.253906 21.53125 -18.265625 C 22.40625 -17.285156 23.09375 -16.128906 23.59375 -14.796875 C 24.09375 -13.472656 24.34375 -12.070312 24.34375 -10.59375 C 24.34375 -9.0625 24.113281 -7.625 23.65625 -6.28125 C 23.195312 -4.9375 22.554688 -3.769531 21.734375 -2.78125 C 20.921875 -1.789062 19.945312 -1.007812 18.8125 -0.4375 C 17.6875 0.125 16.453125 0.40625 15.109375 0.40625 Z M 13.296875 -4.1875 C 14.097656 -4.1875 14.84375 -4.359375 15.53125 -4.703125 C 16.21875 -5.054688 16.800781 -5.53125 17.28125 -6.125 C 17.769531 -6.71875 18.144531 -7.398438 18.40625 -8.171875 C 18.675781 -8.953125 18.8125 -9.757812 18.8125 -10.59375 C 18.8125 -11.476562 18.664062 -12.300781 18.375 -13.0625 C 18.082031 -13.832031 17.671875 -14.5 17.140625 -15.0625 C 16.617188 -15.632812 16 -16.082031 15.28125 -16.40625 C 14.570312 -16.726562 13.800781 -16.890625 12.96875 -16.890625 C 12.457031 -16.890625 11.929688 -16.800781 11.390625 -16.625 C 10.859375 -16.445312 10.363281 -16.195312 9.90625 -15.875 C 9.457031 -15.550781 9.050781 -15.175781 8.6875 -14.75 C 8.320312 -14.320312 8.046875 -13.851562 7.859375 -13.34375 L 7.859375 -8.375 C 8.335938 -7.164062 9.070312 -6.164062 10.0625 -5.375 C 11.0625 -4.582031 12.140625 -4.1875 13.296875 -4.1875 Z M 13.296875 -4.1875 "/></g></g></g><g fill="#000000" fill-opacity="1"><g transform="translate(232.896309, 261.887942)"><g><path d="M 12.203125 0.40625 C 10.484375 0.40625 8.9375 0.109375 7.5625 -0.484375 C 6.195312 -1.078125 5.035156 -1.875 4.078125 -2.875 C 3.128906 -3.882812 2.398438 -5.046875 1.890625 -6.359375 C 1.378906 -7.679688 1.125 -9.066406 1.125 -10.515625 C 1.125 -11.992188 1.378906 -13.390625 1.890625 -14.703125 C 2.398438 -16.023438 3.128906 -17.1875 4.078125 -18.1875 C 5.035156 -19.195312 6.195312 -20 7.5625 -20.59375 C 8.9375 -21.1875 10.484375 -21.484375 12.203125 -21.484375 C 13.921875 -21.484375 15.457031 -21.1875 16.8125 -20.59375 C 18.175781 -20 19.332031 -19.195312 20.28125 -18.1875 C 21.238281 -17.1875 21.972656 -16.023438 22.484375 -14.703125 C 22.992188 -13.390625 23.25 -11.992188 23.25 -10.515625 C 23.25 -9.066406 22.992188 -7.679688 22.484375 -6.359375 C 21.972656 -5.046875 21.25 -3.882812 20.3125 -2.875 C 19.375 -1.875 18.21875 -1.078125 16.84375 -0.484375 C 15.46875 0.109375 13.921875 0.40625 12.203125 0.40625 Z M 6.6875 -10.515625 C 6.6875 -9.578125 6.828125 -8.722656 7.109375 -7.953125 C 7.390625 -7.191406 7.78125 -6.53125 8.28125 -5.96875 C 8.78125 -5.40625 9.363281 -4.96875 10.03125 -4.65625 C 10.707031 -4.34375 11.429688 -4.1875 12.203125 -4.1875 C 12.984375 -4.1875 13.707031 -4.34375 14.375 -4.65625 C 15.050781 -4.96875 15.640625 -5.40625 16.140625 -5.96875 C 16.640625 -6.53125 17.03125 -7.195312 17.3125 -7.96875 C 17.59375 -8.75 17.734375 -9.613281 17.734375 -10.5625 C 17.734375 -11.46875 17.59375 -12.3125 17.3125 -13.09375 C 17.03125 -13.875 16.640625 -14.546875 16.140625 -15.109375 C 15.640625 -15.671875 15.050781 -16.109375 14.375 -16.421875 C 13.707031 -16.734375 12.984375 -16.890625 12.203125 -16.890625 C 11.429688 -16.890625 10.707031 -16.726562 10.03125 -16.40625 C 9.363281 -16.082031 8.78125 -15.632812 8.28125 -15.0625 C 7.78125 -14.5 7.390625 -13.828125 7.109375 -13.046875 C 6.828125 -12.273438 6.6875 -11.429688 6.6875 -10.515625 Z M 6.6875 -10.515625 "/></g></g></g><g fill="#000000" fill-opacity="1"><g transform="translate(257.309004, 261.887942)"><g><path d="M 15.109375 -1.09375 C 14.378906 -0.769531 13.488281 -0.445312 12.4375 -0.125 C 11.394531 0.195312 10.296875 0.359375 9.140625 0.359375 C 8.390625 0.359375 7.6875 0.265625 7.03125 0.078125 C 6.375 -0.109375 5.796875 -0.410156 5.296875 -0.828125 C 4.796875 -1.242188 4.398438 -1.78125 4.109375 -2.4375 C 3.816406 -3.09375 3.671875 -3.890625 3.671875 -4.828125 L 3.671875 -16.96875 L 0.890625 -16.96875 L 0.890625 -21.109375 L 3.671875 -21.109375 L 3.671875 -27.96875 L 9.0625 -27.96875 L 9.0625 -21.109375 L 13.5 -21.109375 L 13.5 -16.96875 L 9.0625 -16.96875 L 9.0625 -6.65625 C 9.0625 -5.894531 9.253906 -5.359375 9.640625 -5.046875 C 10.035156 -4.742188 10.515625 -4.59375 11.078125 -4.59375 C 11.640625 -4.59375 12.191406 -4.6875 12.734375 -4.875 C 13.273438 -5.0625 13.703125 -5.222656 14.015625 -5.359375 Z M 15.109375 -1.09375 "/></g></g></g></svg>