<svg xmlns="http://www.w3.org/2000/svg" xmlns:xlink="http://www.w3.org/1999/xlink" width="500" zoomAndPan="magnify" viewBox="0 0 375 374.999991" height="500" preserveAspectRatio="xMidYMid meet" version="1.0"><defs><g/><clipPath id="id1"><path d="M 9.027344 122.613281 L 121.527344 122.613281 L 121.527344 235.113281 L 9.027344 235.113281 Z M 9.027344 122.613281 " clip-rule="nonzero"/></clipPath></defs><g clip-path="url(#id1)"><path fill="#8c52ff" d="M 65.277344 122.613281 C 34.210938 122.613281 9.027344 147.796875 9.027344 178.863281 C 9.027344 209.929688 34.210938 235.113281 65.277344 235.113281 C 96.34375 235.113281 121.527344 209.929688 121.527344 178.863281 C 121.527344 147.796875 96.34375 122.613281 65.277344 122.613281 " fill-opacity="1" fill-rule="nonzero"/></g><g fill="#ffffff" fill-opacity="1"><g transform="translate(31.827687, 216.255201)"><g><path d="M 34.902344 0.664062 C 42.816406 0.664062 50.304688 -2.597656 55.675781 -7.972656 C 61.171875 -13.464844 64.3125 -20.773438 64.3125 -28.746094 C 64.3125 -36.714844 61.050781 -44.144531 55.675781 -49.636719 C 50.304688 -55.011719 42.816406 -58.273438 34.902344 -58.273438 C 32.488281 -58.273438 29.953125 -57.730469 27.355469 -56.703125 C 24.636719 -55.675781 22.707031 -54.410156 21.4375 -52.898438 L 21.4375 -71.4375 C 21.4375 -73.792969 20.652344 -75.90625 19.203125 -77.417969 C 17.753906 -78.867188 15.640625 -79.773438 13.464844 -79.773438 C 11.292969 -79.773438 9.179688 -78.867188 7.730469 -77.417969 C 6.28125 -75.90625 5.375 -73.792969 5.375 -71.4375 L 5.375 -28.746094 C 5.375 -20.773438 8.574219 -13.34375 14.070312 -7.972656 C 19.566406 -2.476562 26.933594 0.664062 34.902344 0.664062 Z M 34.902344 -15.460938 C 31.28125 -15.460938 27.898438 -16.910156 25.484375 -19.324219 C 23.007812 -21.800781 21.496094 -25.121094 21.496094 -28.746094 C 21.496094 -32.367188 23.007812 -35.6875 25.484375 -38.164062 C 27.898438 -40.582031 31.28125 -42.03125 34.902344 -42.03125 C 38.527344 -42.03125 41.910156 -40.582031 44.324219 -38.164062 C 46.800781 -35.6875 48.25 -32.367188 48.25 -28.746094 C 48.25 -25.121094 46.800781 -21.800781 44.324219 -19.324219 C 41.910156 -16.910156 38.527344 -15.460938 34.902344 -15.460938 Z M 34.902344 -15.460938 "/></g></g></g><g fill="#444444" fill-opacity="1"><g transform="translate(130.555558, 168.076981)"><g><path d="M 20.671875 -5.859375 C 20.671875 -4.898438 20.476562 -4.054688 20.09375 -3.328125 C 19.707031 -2.597656 19.175781 -1.988281 18.5 -1.5 C 17.832031 -1.007812 17.054688 -0.632812 16.171875 -0.375 C 15.285156 -0.125 14.34375 0 13.34375 0 L 2.375 0 L 2.375 -22.71875 L 14.53125 -22.71875 C 15.320312 -22.71875 16.035156 -22.546875 16.671875 -22.203125 C 17.304688 -21.867188 17.847656 -21.425781 18.296875 -20.875 C 18.742188 -20.332031 19.09375 -19.710938 19.34375 -19.015625 C 19.59375 -18.328125 19.71875 -17.628906 19.71875 -16.921875 C 19.71875 -15.816406 19.4375 -14.78125 18.875 -13.8125 C 18.320312 -12.84375 17.515625 -12.117188 16.453125 -11.640625 C 17.753906 -11.265625 18.78125 -10.578125 19.53125 -9.578125 C 20.289062 -8.585938 20.671875 -7.347656 20.671875 -5.859375 Z M 16.21875 -6.6875 C 16.21875 -7.09375 16.148438 -7.484375 16.015625 -7.859375 C 15.878906 -8.234375 15.691406 -8.554688 15.453125 -8.828125 C 15.222656 -9.109375 14.945312 -9.328125 14.625 -9.484375 C 14.300781 -9.648438 13.945312 -9.734375 13.5625 -9.734375 L 6.78125 -9.734375 L 6.78125 -3.75 L 13.34375 -3.75 C 13.75 -3.75 14.128906 -3.820312 14.484375 -3.96875 C 14.835938 -4.113281 15.140625 -4.316406 15.390625 -4.578125 C 15.648438 -4.847656 15.851562 -5.164062 16 -5.53125 C 16.144531 -5.894531 16.21875 -6.28125 16.21875 -6.6875 Z M 6.78125 -18.9375 L 6.78125 -13.21875 L 12.671875 -13.21875 C 13.421875 -13.21875 14.054688 -13.472656 14.578125 -13.984375 C 15.097656 -14.492188 15.359375 -15.195312 15.359375 -16.09375 C 15.359375 -16.96875 15.117188 -17.660156 14.640625 -18.171875 C 14.160156 -18.679688 13.566406 -18.9375 12.859375 -18.9375 Z M 6.78125 -18.9375 "/></g></g></g><g fill="#444444" fill-opacity="1"><g transform="translate(152.310214, 168.076981)"><g><path d="M 9.703125 0.3125 C 8.328125 0.3125 7.097656 0.078125 6.015625 -0.390625 C 4.929688 -0.859375 4.007812 -1.488281 3.25 -2.28125 C 2.488281 -3.082031 1.90625 -4.003906 1.5 -5.046875 C 1.09375 -6.097656 0.890625 -7.203125 0.890625 -8.359375 C 0.890625 -9.523438 1.09375 -10.628906 1.5 -11.671875 C 1.90625 -12.722656 2.488281 -13.644531 3.25 -14.4375 C 4.007812 -15.238281 4.929688 -15.875 6.015625 -16.34375 C 7.097656 -16.820312 8.328125 -17.0625 9.703125 -17.0625 C 11.066406 -17.0625 12.285156 -16.820312 13.359375 -16.34375 C 14.429688 -15.875 15.347656 -15.238281 16.109375 -14.4375 C 16.867188 -13.644531 17.453125 -12.722656 17.859375 -11.671875 C 18.265625 -10.628906 18.46875 -9.523438 18.46875 -8.359375 C 18.46875 -7.203125 18.265625 -6.097656 17.859375 -5.046875 C 17.453125 -4.003906 16.875 -3.082031 16.125 -2.28125 C 15.382812 -1.488281 14.46875 -0.859375 13.375 -0.390625 C 12.289062 0.078125 11.066406 0.3125 9.703125 0.3125 Z M 5.3125 -8.359375 C 5.3125 -7.609375 5.421875 -6.925781 5.640625 -6.3125 C 5.867188 -5.707031 6.179688 -5.179688 6.578125 -4.734375 C 6.972656 -4.285156 7.4375 -3.9375 7.96875 -3.6875 C 8.5 -3.445312 9.078125 -3.328125 9.703125 -3.328125 C 10.316406 -3.328125 10.890625 -3.445312 11.421875 -3.6875 C 11.953125 -3.9375 12.414062 -4.285156 12.8125 -4.734375 C 13.207031 -5.179688 13.515625 -5.710938 13.734375 -6.328125 C 13.960938 -6.953125 14.078125 -7.640625 14.078125 -8.390625 C 14.078125 -9.109375 13.960938 -9.773438 13.734375 -10.390625 C 13.515625 -11.015625 13.207031 -11.550781 12.8125 -12 C 12.414062 -12.445312 11.953125 -12.789062 11.421875 -13.03125 C 10.890625 -13.28125 10.316406 -13.40625 9.703125 -13.40625 C 9.078125 -13.40625 8.5 -13.273438 7.96875 -13.015625 C 7.4375 -12.765625 6.972656 -12.414062 6.578125 -11.96875 C 6.179688 -11.519531 5.867188 -10.984375 5.640625 -10.359375 C 5.421875 -9.742188 5.3125 -9.078125 5.3125 -8.359375 Z M 5.3125 -8.359375 "/></g></g></g><g fill="#444444" fill-opacity="1"><g transform="translate(171.697443, 168.076981)"><g><path d="M 1.921875 -23.359375 L 6.203125 -23.359375 L 6.203125 -5.375 C 6.203125 -4.757812 6.351562 -4.28125 6.65625 -3.9375 C 6.957031 -3.59375 7.382812 -3.421875 7.9375 -3.421875 C 8.1875 -3.421875 8.46875 -3.460938 8.78125 -3.546875 C 9.09375 -3.640625 9.382812 -3.75 9.65625 -3.875 L 10.234375 -0.609375 C 9.660156 -0.328125 8.988281 -0.113281 8.21875 0.03125 C 7.457031 0.175781 6.765625 0.25 6.140625 0.25 C 4.796875 0.25 3.753906 -0.101562 3.015625 -0.8125 C 2.285156 -1.53125 1.921875 -2.550781 1.921875 -3.875 Z M 1.921875 -23.359375 "/></g></g></g><g fill="#444444" fill-opacity="1"><g transform="translate(181.838945, 168.076981)"><g><path d="M 9.703125 0.3125 C 8.328125 0.3125 7.097656 0.078125 6.015625 -0.390625 C 4.929688 -0.859375 4.007812 -1.488281 3.25 -2.28125 C 2.488281 -3.082031 1.90625 -4.003906 1.5 -5.046875 C 1.09375 -6.097656 0.890625 -7.203125 0.890625 -8.359375 C 0.890625 -9.523438 1.09375 -10.628906 1.5 -11.671875 C 1.90625 -12.722656 2.488281 -13.644531 3.25 -14.4375 C 4.007812 -15.238281 4.929688 -15.875 6.015625 -16.34375 C 7.097656 -16.820312 8.328125 -17.0625 9.703125 -17.0625 C 11.066406 -17.0625 12.285156 -16.820312 13.359375 -16.34375 C 14.429688 -15.875 15.347656 -15.238281 16.109375 -14.4375 C 16.867188 -13.644531 17.453125 -12.722656 17.859375 -11.671875 C 18.265625 -10.628906 18.46875 -9.523438 18.46875 -8.359375 C 18.46875 -7.203125 18.265625 -6.097656 17.859375 -5.046875 C 17.453125 -4.003906 16.875 -3.082031 16.125 -2.28125 C 15.382812 -1.488281 14.46875 -0.859375 13.375 -0.390625 C 12.289062 0.078125 11.066406 0.3125 9.703125 0.3125 Z M 5.3125 -8.359375 C 5.3125 -7.609375 5.421875 -6.925781 5.640625 -6.3125 C 5.867188 -5.707031 6.179688 -5.179688 6.578125 -4.734375 C 6.972656 -4.285156 7.4375 -3.9375 7.96875 -3.6875 C 8.5 -3.445312 9.078125 -3.328125 9.703125 -3.328125 C 10.316406 -3.328125 10.890625 -3.445312 11.421875 -3.6875 C 11.953125 -3.9375 12.414062 -4.285156 12.8125 -4.734375 C 13.207031 -5.179688 13.515625 -5.710938 13.734375 -6.328125 C 13.960938 -6.953125 14.078125 -7.640625 14.078125 -8.390625 C 14.078125 -9.109375 13.960938 -9.773438 13.734375 -10.390625 C 13.515625 -11.015625 13.207031 -11.550781 12.8125 -12 C 12.414062 -12.445312 11.953125 -12.789062 11.421875 -13.03125 C 10.890625 -13.28125 10.316406 -13.40625 9.703125 -13.40625 C 9.078125 -13.40625 8.5 -13.273438 7.96875 -13.015625 C 7.4375 -12.765625 6.972656 -12.414062 6.578125 -11.96875 C 6.179688 -11.519531 5.867188 -10.984375 5.640625 -10.359375 C 5.421875 -9.742188 5.3125 -9.078125 5.3125 -8.359375 Z M 5.3125 -8.359375 "/></g></g></g><g fill="#444444" fill-opacity="1"><g transform="translate(201.226174, 168.076981)"><g><path d="M 2.375 0 L 2.375 -22.71875 L 17.625 -22.71875 L 17.625 -18.84375 L 6.78125 -18.84375 L 6.78125 -12.984375 L 15.8125 -12.984375 L 15.8125 -9.40625 L 6.78125 -9.40625 L 6.78125 0 Z M 2.375 0 "/></g></g></g><g fill="#444444" fill-opacity="1"><g transform="translate(219.58966, 168.076981)"><g><path d="M 9.703125 0.3125 C 8.328125 0.3125 7.097656 0.078125 6.015625 -0.390625 C 4.929688 -0.859375 4.007812 -1.488281 3.25 -2.28125 C 2.488281 -3.082031 1.90625 -4.003906 1.5 -5.046875 C 1.09375 -6.097656 0.890625 -7.203125 0.890625 -8.359375 C 0.890625 -9.523438 1.09375 -10.628906 1.5 -11.671875 C 1.90625 -12.722656 2.488281 -13.644531 3.25 -14.4375 C 4.007812 -15.238281 4.929688 -15.875 6.015625 -16.34375 C 7.097656 -16.820312 8.328125 -17.0625 9.703125 -17.0625 C 11.066406 -17.0625 12.285156 -16.820312 13.359375 -16.34375 C 14.429688 -15.875 15.347656 -15.238281 16.109375 -14.4375 C 16.867188 -13.644531 17.453125 -12.722656 17.859375 -11.671875 C 18.265625 -10.628906 18.46875 -9.523438 18.46875 -8.359375 C 18.46875 -7.203125 18.265625 -6.097656 17.859375 -5.046875 C 17.453125 -4.003906 16.875 -3.082031 16.125 -2.28125 C 15.382812 -1.488281 14.46875 -0.859375 13.375 -0.390625 C 12.289062 0.078125 11.066406 0.3125 9.703125 0.3125 Z M 5.3125 -8.359375 C 5.3125 -7.609375 5.421875 -6.925781 5.640625 -6.3125 C 5.867188 -5.707031 6.179688 -5.179688 6.578125 -4.734375 C 6.972656 -4.285156 7.4375 -3.9375 7.96875 -3.6875 C 8.5 -3.445312 9.078125 -3.328125 9.703125 -3.328125 C 10.316406 -3.328125 10.890625 -3.445312 11.421875 -3.6875 C 11.953125 -3.9375 12.414062 -4.285156 12.8125 -4.734375 C 13.207031 -5.179688 13.515625 -5.710938 13.734375 -6.328125 C 13.960938 -6.953125 14.078125 -7.640625 14.078125 -8.390625 C 14.078125 -9.109375 13.960938 -9.773438 13.734375 -10.390625 C 13.515625 -11.015625 13.207031 -11.550781 12.8125 -12 C 12.414062 -12.445312 11.953125 -12.789062 11.421875 -13.03125 C 10.890625 -13.28125 10.316406 -13.40625 9.703125 -13.40625 C 9.078125 -13.40625 8.5 -13.273438 7.96875 -13.015625 C 7.4375 -12.765625 6.972656 -12.414062 6.578125 -11.96875 C 6.179688 -11.519531 5.867188 -10.984375 5.640625 -10.359375 C 5.421875 -9.742188 5.3125 -9.078125 5.3125 -8.359375 Z M 5.3125 -8.359375 "/></g></g></g><g fill="#444444" fill-opacity="1"><g transform="translate(238.976889, 168.076981)"><g><path d="M 11.9375 -13.0625 C 10.632812 -13.039062 9.46875 -12.785156 8.4375 -12.296875 C 7.414062 -11.816406 6.679688 -11.097656 6.234375 -10.140625 L 6.234375 0 L 1.953125 0 L 1.953125 -16.765625 L 5.890625 -16.765625 L 5.890625 -13.1875 C 6.191406 -13.757812 6.539062 -14.273438 6.9375 -14.734375 C 7.34375 -15.191406 7.78125 -15.59375 8.25 -15.9375 C 8.71875 -16.28125 9.191406 -16.539062 9.671875 -16.71875 C 10.160156 -16.894531 10.628906 -16.984375 11.078125 -16.984375 C 11.304688 -16.984375 11.476562 -16.984375 11.59375 -16.984375 C 11.71875 -16.984375 11.832031 -16.972656 11.9375 -16.953125 Z M 11.9375 -13.0625 "/></g></g></g><g fill="#444444" fill-opacity="1"><g transform="translate(251.35785, 168.076981)"><g><path d="M 28 0 L 23.71875 0 L 23.71875 -9.40625 C 23.71875 -10.75 23.488281 -11.726562 23.03125 -12.34375 C 22.570312 -12.96875 21.9375 -13.28125 21.125 -13.28125 C 20.269531 -13.28125 19.46875 -12.953125 18.71875 -12.296875 C 17.96875 -11.648438 17.4375 -10.804688 17.125 -9.765625 L 17.125 0 L 12.828125 0 L 12.828125 -9.40625 C 12.828125 -10.75 12.597656 -11.726562 12.140625 -12.34375 C 11.679688 -12.96875 11.046875 -13.28125 10.234375 -13.28125 C 9.398438 -13.28125 8.601562 -12.957031 7.84375 -12.3125 C 7.09375 -11.675781 6.554688 -10.835938 6.234375 -9.796875 L 6.234375 0 L 1.953125 0 L 1.953125 -16.765625 L 5.828125 -16.765625 L 5.828125 -13.65625 C 6.441406 -14.75 7.285156 -15.585938 8.359375 -16.171875 C 9.441406 -16.765625 10.675781 -17.0625 12.0625 -17.0625 C 13.46875 -17.0625 14.554688 -16.71875 15.328125 -16.03125 C 16.097656 -15.351562 16.585938 -14.507812 16.796875 -13.5 C 17.484375 -14.65625 18.347656 -15.535156 19.390625 -16.140625 C 20.429688 -16.753906 21.625 -17.0625 22.96875 -17.0625 C 24 -17.0625 24.84375 -16.867188 25.5 -16.484375 C 26.164062 -16.097656 26.675781 -15.59375 27.03125 -14.96875 C 27.394531 -14.351562 27.644531 -13.648438 27.78125 -12.859375 C 27.925781 -12.078125 28 -11.28125 28 -10.46875 Z M 28 0 "/></g></g></g><g fill="#444444" fill-opacity="1"><g transform="translate(281.142528, 168.076981)"><g><path d="M 8.28125 0.3125 C 6.875 0.3125 5.5 0.0859375 4.15625 -0.359375 C 2.8125 -0.804688 1.660156 -1.441406 0.703125 -2.265625 L 2.296875 -4.953125 C 3.328125 -4.234375 4.328125 -3.6875 5.296875 -3.3125 C 6.265625 -2.9375 7.226562 -2.75 8.1875 -2.75 C 9.039062 -2.75 9.710938 -2.910156 10.203125 -3.234375 C 10.691406 -3.554688 10.9375 -4.015625 10.9375 -4.609375 C 10.9375 -5.203125 10.648438 -5.640625 10.078125 -5.921875 C 9.503906 -6.203125 8.566406 -6.519531 7.265625 -6.875 C 6.171875 -7.175781 5.238281 -7.460938 4.46875 -7.734375 C 3.707031 -8.015625 3.09375 -8.332031 2.625 -8.6875 C 2.15625 -9.039062 1.8125 -9.445312 1.59375 -9.90625 C 1.382812 -10.363281 1.28125 -10.910156 1.28125 -11.546875 C 1.28125 -12.398438 1.441406 -13.164062 1.765625 -13.84375 C 2.097656 -14.53125 2.5625 -15.113281 3.15625 -15.59375 C 3.757812 -16.070312 4.460938 -16.441406 5.265625 -16.703125 C 6.066406 -16.960938 6.9375 -17.09375 7.875 -17.09375 C 9.132812 -17.09375 10.3125 -16.910156 11.40625 -16.546875 C 12.507812 -16.179688 13.519531 -15.59375 14.4375 -14.78125 L 12.703125 -12.1875 C 11.847656 -12.832031 11.019531 -13.300781 10.21875 -13.59375 C 9.425781 -13.894531 8.632812 -14.046875 7.84375 -14.046875 C 7.113281 -14.046875 6.503906 -13.894531 6.015625 -13.59375 C 5.523438 -13.300781 5.28125 -12.820312 5.28125 -12.15625 C 5.28125 -11.863281 5.335938 -11.617188 5.453125 -11.421875 C 5.566406 -11.234375 5.753906 -11.0625 6.015625 -10.90625 C 6.273438 -10.757812 6.609375 -10.613281 7.015625 -10.46875 C 7.429688 -10.332031 7.953125 -10.191406 8.578125 -10.046875 C 9.722656 -9.742188 10.707031 -9.441406 11.53125 -9.140625 C 12.351562 -8.847656 13.023438 -8.507812 13.546875 -8.125 C 14.078125 -7.738281 14.460938 -7.296875 14.703125 -6.796875 C 14.953125 -6.296875 15.078125 -5.691406 15.078125 -4.984375 C 15.078125 -3.347656 14.46875 -2.054688 13.25 -1.109375 C 12.03125 -0.160156 10.375 0.3125 8.28125 0.3125 Z M 8.28125 0.3125 "/></g></g></g><g fill="#444444" fill-opacity="1"><g transform="translate(130.555558, 212.326978)"><g><path d="M 8.828125 -22.71875 L 12.734375 -22.71875 L 21.375 0 L 16.828125 0 L 14.71875 -5.65625 L 6.78125 -5.65625 L 4.703125 0 L 0.15625 0 Z M 13.921875 -8.765625 L 10.78125 -17.703125 L 7.515625 -8.765625 Z M 13.921875 -8.765625 "/></g></g></g><g fill="#444444" fill-opacity="1"><g transform="translate(152.054279, 212.326978)"><g><path d="M 12 0.3125 C 10.675781 0.3125 9.523438 0.0195312 8.546875 -0.5625 C 7.566406 -1.144531 6.796875 -1.9375 6.234375 -2.9375 L 6.234375 6.8125 L 1.953125 6.8125 L 1.953125 -16.765625 L 5.703125 -16.765625 L 5.703125 -13.890625 C 6.316406 -14.867188 7.113281 -15.640625 8.09375 -16.203125 C 9.070312 -16.773438 10.203125 -17.0625 11.484375 -17.0625 C 12.617188 -17.0625 13.664062 -16.832031 14.625 -16.375 C 15.582031 -15.914062 16.40625 -15.296875 17.09375 -14.515625 C 17.789062 -13.734375 18.335938 -12.8125 18.734375 -11.75 C 19.128906 -10.695312 19.328125 -9.585938 19.328125 -8.421875 C 19.328125 -7.203125 19.144531 -6.054688 18.78125 -4.984375 C 18.414062 -3.921875 17.90625 -2.992188 17.25 -2.203125 C 16.601562 -1.421875 15.832031 -0.804688 14.9375 -0.359375 C 14.039062 0.0859375 13.0625 0.3125 12 0.3125 Z M 10.5625 -3.328125 C 11.195312 -3.328125 11.785156 -3.460938 12.328125 -3.734375 C 12.878906 -4.015625 13.34375 -4.390625 13.71875 -4.859375 C 14.101562 -5.328125 14.398438 -5.867188 14.609375 -6.484375 C 14.828125 -7.109375 14.9375 -7.753906 14.9375 -8.421875 C 14.9375 -9.117188 14.816406 -9.769531 14.578125 -10.375 C 14.347656 -10.988281 14.023438 -11.519531 13.609375 -11.96875 C 13.191406 -12.414062 12.703125 -12.765625 12.140625 -13.015625 C 11.578125 -13.273438 10.960938 -13.40625 10.296875 -13.40625 C 9.898438 -13.40625 9.488281 -13.332031 9.0625 -13.1875 C 8.632812 -13.050781 8.238281 -12.851562 7.875 -12.59375 C 7.507812 -12.34375 7.179688 -12.046875 6.890625 -11.703125 C 6.609375 -11.367188 6.390625 -11 6.234375 -10.59375 L 6.234375 -6.65625 C 6.617188 -5.695312 7.207031 -4.898438 8 -4.265625 C 8.789062 -3.640625 9.644531 -3.328125 10.5625 -3.328125 Z M 10.5625 -3.328125 "/></g></g></g><g fill="#444444" fill-opacity="1"><g transform="translate(172.337294, 212.326978)"><g><path d="M 12 0.3125 C 10.675781 0.3125 9.523438 0.0195312 8.546875 -0.5625 C 7.566406 -1.144531 6.796875 -1.9375 6.234375 -2.9375 L 6.234375 6.8125 L 1.953125 6.8125 L 1.953125 -16.765625 L 5.703125 -16.765625 L 5.703125 -13.890625 C 6.316406 -14.867188 7.113281 -15.640625 8.09375 -16.203125 C 9.070312 -16.773438 10.203125 -17.0625 11.484375 -17.0625 C 12.617188 -17.0625 13.664062 -16.832031 14.625 -16.375 C 15.582031 -15.914062 16.40625 -15.296875 17.09375 -14.515625 C 17.789062 -13.734375 18.335938 -12.8125 18.734375 -11.75 C 19.128906 -10.695312 19.328125 -9.585938 19.328125 -8.421875 C 19.328125 -7.203125 19.144531 -6.054688 18.78125 -4.984375 C 18.414062 -3.921875 17.90625 -2.992188 17.25 -2.203125 C 16.601562 -1.421875 15.832031 -0.804688 14.9375 -0.359375 C 14.039062 0.0859375 13.0625 0.3125 12 0.3125 Z M 10.5625 -3.328125 C 11.195312 -3.328125 11.785156 -3.460938 12.328125 -3.734375 C 12.878906 -4.015625 13.34375 -4.390625 13.71875 -4.859375 C 14.101562 -5.328125 14.398438 -5.867188 14.609375 -6.484375 C 14.828125 -7.109375 14.9375 -7.753906 14.9375 -8.421875 C 14.9375 -9.117188 14.816406 -9.769531 14.578125 -10.375 C 14.347656 -10.988281 14.023438 -11.519531 13.609375 -11.96875 C 13.191406 -12.414062 12.703125 -12.765625 12.140625 -13.015625 C 11.578125 -13.273438 10.960938 -13.40625 10.296875 -13.40625 C 9.898438 -13.40625 9.488281 -13.332031 9.0625 -13.1875 C 8.632812 -13.050781 8.238281 -12.851562 7.875 -12.59375 C 7.507812 -12.34375 7.179688 -12.046875 6.890625 -11.703125 C 6.609375 -11.367188 6.390625 -11 6.234375 -10.59375 L 6.234375 -6.65625 C 6.617188 -5.695312 7.207031 -4.898438 8 -4.265625 C 8.789062 -3.640625 9.644531 -3.328125 10.5625 -3.328125 Z M 10.5625 -3.328125 "/></g></g></g><g fill="#444444" fill-opacity="1"><g transform="translate(192.62031, 212.326978)"><g><path d="M 11.9375 -13.0625 C 10.632812 -13.039062 9.46875 -12.785156 8.4375 -12.296875 C 7.414062 -11.816406 6.679688 -11.097656 6.234375 -10.140625 L 6.234375 0 L 1.953125 0 L 1.953125 -16.765625 L 5.890625 -16.765625 L 5.890625 -13.1875 C 6.191406 -13.757812 6.539062 -14.273438 6.9375 -14.734375 C 7.34375 -15.191406 7.78125 -15.59375 8.25 -15.9375 C 8.71875 -16.28125 9.191406 -16.539062 9.671875 -16.71875 C 10.160156 -16.894531 10.628906 -16.984375 11.078125 -16.984375 C 11.304688 -16.984375 11.476562 -16.984375 11.59375 -16.984375 C 11.71875 -16.984375 11.832031 -16.972656 11.9375 -16.953125 Z M 11.9375 -13.0625 "/></g></g></g><g fill="#444444" fill-opacity="1"><g transform="translate(205.001271, 212.326978)"><g><path d="M 9.703125 0.3125 C 8.328125 0.3125 7.097656 0.078125 6.015625 -0.390625 C 4.929688 -0.859375 4.007812 -1.488281 3.25 -2.28125 C 2.488281 -3.082031 1.90625 -4.003906 1.5 -5.046875 C 1.09375 -6.097656 0.890625 -7.203125 0.890625 -8.359375 C 0.890625 -9.523438 1.09375 -10.628906 1.5 -11.671875 C 1.90625 -12.722656 2.488281 -13.644531 3.25 -14.4375 C 4.007812 -15.238281 4.929688 -15.875 6.015625 -16.34375 C 7.097656 -16.820312 8.328125 -17.0625 9.703125 -17.0625 C 11.066406 -17.0625 12.285156 -16.820312 13.359375 -16.34375 C 14.429688 -15.875 15.347656 -15.238281 16.109375 -14.4375 C 16.867188 -13.644531 17.453125 -12.722656 17.859375 -11.671875 C 18.265625 -10.628906 18.46875 -9.523438 18.46875 -8.359375 C 18.46875 -7.203125 18.265625 -6.097656 17.859375 -5.046875 C 17.453125 -4.003906 16.875 -3.082031 16.125 -2.28125 C 15.382812 -1.488281 14.46875 -0.859375 13.375 -0.390625 C 12.289062 0.078125 11.066406 0.3125 9.703125 0.3125 Z M 5.3125 -8.359375 C 5.3125 -7.609375 5.421875 -6.925781 5.640625 -6.3125 C 5.867188 -5.707031 6.179688 -5.179688 6.578125 -4.734375 C 6.972656 -4.285156 7.4375 -3.9375 7.96875 -3.6875 C 8.5 -3.445312 9.078125 -3.328125 9.703125 -3.328125 C 10.316406 -3.328125 10.890625 -3.445312 11.421875 -3.6875 C 11.953125 -3.9375 12.414062 -4.285156 12.8125 -4.734375 C 13.207031 -5.179688 13.515625 -5.710938 13.734375 -6.328125 C 13.960938 -6.953125 14.078125 -7.640625 14.078125 -8.390625 C 14.078125 -9.109375 13.960938 -9.773438 13.734375 -10.390625 C 13.515625 -11.015625 13.207031 -11.550781 12.8125 -12 C 12.414062 -12.445312 11.953125 -12.789062 11.421875 -13.03125 C 10.890625 -13.28125 10.316406 -13.40625 9.703125 -13.40625 C 9.078125 -13.40625 8.5 -13.273438 7.96875 -13.015625 C 7.4375 -12.765625 6.972656 -12.414062 6.578125 -11.96875 C 6.179688 -11.519531 5.867188 -10.984375 5.640625 -10.359375 C 5.421875 -9.742188 5.3125 -9.078125 5.3125 -8.359375 Z M 5.3125 -8.359375 "/></g></g></g><g fill="#444444" fill-opacity="1"><g transform="translate(224.3885, 212.326978)"><g><path d="M 6.46875 0 L 0.28125 -16.765625 L 4.703125 -16.765625 L 8.953125 -3.484375 L 13.25 -16.765625 L 17.28125 -16.765625 L 11.109375 0 Z M 6.46875 0 "/></g></g></g><g fill="#444444" fill-opacity="1"><g transform="translate(241.952181, 212.326978)"><g><path d="M 6.53125 0.3125 C 5.71875 0.3125 4.957031 0.179688 4.25 -0.078125 C 3.550781 -0.347656 2.941406 -0.722656 2.421875 -1.203125 C 1.910156 -1.679688 1.507812 -2.238281 1.21875 -2.875 C 0.9375 -3.519531 0.796875 -4.222656 0.796875 -4.984375 C 0.796875 -5.773438 0.972656 -6.503906 1.328125 -7.171875 C 1.679688 -7.847656 2.171875 -8.421875 2.796875 -8.890625 C 3.429688 -9.359375 4.1875 -9.726562 5.0625 -10 C 5.9375 -10.269531 6.894531 -10.40625 7.9375 -10.40625 C 8.6875 -10.40625 9.414062 -10.335938 10.125 -10.203125 C 10.84375 -10.078125 11.476562 -9.894531 12.03125 -9.65625 L 12.03125 -10.625 C 12.03125 -11.726562 11.710938 -12.578125 11.078125 -13.171875 C 10.453125 -13.773438 9.519531 -14.078125 8.28125 -14.078125 C 7.382812 -14.078125 6.507812 -13.914062 5.65625 -13.59375 C 4.8125 -13.28125 3.941406 -12.8125 3.046875 -12.1875 L 1.734375 -14.90625 C 3.878906 -16.34375 6.203125 -17.0625 8.703125 -17.0625 C 11.109375 -17.0625 12.976562 -16.46875 14.3125 -15.28125 C 15.644531 -14.09375 16.3125 -12.378906 16.3125 -10.140625 L 16.3125 -4.921875 C 16.3125 -4.472656 16.390625 -4.15625 16.546875 -3.96875 C 16.710938 -3.78125 16.976562 -3.671875 17.34375 -3.640625 L 17.34375 0 C 16.613281 0.144531 15.984375 0.21875 15.453125 0.21875 C 14.640625 0.21875 14.015625 0.0390625 13.578125 -0.3125 C 13.140625 -0.675781 12.867188 -1.160156 12.765625 -1.765625 L 12.671875 -2.6875 C 11.921875 -1.707031 11.015625 -0.960938 9.953125 -0.453125 C 8.890625 0.0546875 7.75 0.3125 6.53125 0.3125 Z M 7.75 -2.8125 C 8.46875 -2.8125 9.148438 -2.9375 9.796875 -3.1875 C 10.453125 -3.445312 10.960938 -3.789062 11.328125 -4.21875 C 11.796875 -4.582031 12.03125 -4.988281 12.03125 -5.4375 L 12.03125 -7.359375 C 11.519531 -7.546875 10.960938 -7.695312 10.359375 -7.8125 C 9.765625 -7.9375 9.191406 -8 8.640625 -8 C 7.523438 -8 6.613281 -7.75 5.90625 -7.25 C 5.207031 -6.75 4.859375 -6.113281 4.859375 -5.34375 C 4.859375 -4.613281 5.132812 -4.007812 5.6875 -3.53125 C 6.25 -3.050781 6.9375 -2.8125 7.75 -2.8125 Z M 7.75 -2.8125 "/></g></g></g><g fill="#444444" fill-opacity="1"><g transform="translate(260.315667, 212.326978)"><g><path d="M 1.921875 -23.359375 L 6.203125 -23.359375 L 6.203125 -5.375 C 6.203125 -4.757812 6.351562 -4.28125 6.65625 -3.9375 C 6.957031 -3.59375 7.382812 -3.421875 7.9375 -3.421875 C 8.1875 -3.421875 8.46875 -3.460938 8.78125 -3.546875 C 9.09375 -3.640625 9.382812 -3.75 9.65625 -3.875 L 10.234375 -0.609375 C 9.660156 -0.328125 8.988281 -0.113281 8.21875 0.03125 C 7.457031 0.175781 6.765625 0.25 6.140625 0.25 C 4.796875 0.25 3.753906 -0.101562 3.015625 -0.8125 C 2.285156 -1.53125 1.921875 -2.550781 1.921875 -3.875 Z M 1.921875 -23.359375 "/></g></g></g><g fill="#444444" fill-opacity="1"><g transform="translate(270.457169, 212.326978)"><g><path d="M 8.28125 0.3125 C 6.875 0.3125 5.5 0.0859375 4.15625 -0.359375 C 2.8125 -0.804688 1.660156 -1.441406 0.703125 -2.265625 L 2.296875 -4.953125 C 3.328125 -4.234375 4.328125 -3.6875 5.296875 -3.3125 C 6.265625 -2.9375 7.226562 -2.75 8.1875 -2.75 C 9.039062 -2.75 9.710938 -2.910156 10.203125 -3.234375 C 10.691406 -3.554688 10.9375 -4.015625 10.9375 -4.609375 C 10.9375 -5.203125 10.648438 -5.640625 10.078125 -5.921875 C 9.503906 -6.203125 8.566406 -6.519531 7.265625 -6.875 C 6.171875 -7.175781 5.238281 -7.460938 4.46875 -7.734375 C 3.707031 -8.015625 3.09375 -8.332031 2.625 -8.6875 C 2.15625 -9.039062 1.8125 -9.445312 1.59375 -9.90625 C 1.382812 -10.363281 1.28125 -10.910156 1.28125 -11.546875 C 1.28125 -12.398438 1.441406 -13.164062 1.765625 -13.84375 C 2.097656 -14.53125 2.5625 -15.113281 3.15625 -15.59375 C 3.757812 -16.070312 4.460938 -16.441406 5.265625 -16.703125 C 6.066406 -16.960938 6.9375 -17.09375 7.875 -17.09375 C 9.132812 -17.09375 10.3125 -16.910156 11.40625 -16.546875 C 12.507812 -16.179688 13.519531 -15.59375 14.4375 -14.78125 L 12.703125 -12.1875 C 11.847656 -12.832031 11.019531 -13.300781 10.21875 -13.59375 C 9.425781 -13.894531 8.632812 -14.046875 7.84375 -14.046875 C 7.113281 -14.046875 6.503906 -13.894531 6.015625 -13.59375 C 5.523438 -13.300781 5.28125 -12.820312 5.28125 -12.15625 C 5.28125 -11.863281 5.335938 -11.617188 5.453125 -11.421875 C 5.566406 -11.234375 5.753906 -11.0625 6.015625 -10.90625 C 6.273438 -10.757812 6.609375 -10.613281 7.015625 -10.46875 C 7.429688 -10.332031 7.953125 -10.191406 8.578125 -10.046875 C 9.722656 -9.742188 10.707031 -9.441406 11.53125 -9.140625 C 12.351562 -8.847656 13.023438 -8.507812 13.546875 -8.125 C 14.078125 -7.738281 14.460938 -7.296875 14.703125 -6.796875 C 14.953125 -6.296875 15.078125 -5.691406 15.078125 -4.984375 C 15.078125 -3.347656 14.46875 -2.054688 13.25 -1.109375 C 12.03125 -0.160156 10.375 0.3125 8.28125 0.3125 Z M 8.28125 0.3125 "/></g></g></g></svg>