<svg xmlns="http://www.w3.org/2000/svg" xmlns:xlink="http://www.w3.org/1999/xlink" width="500" zoomAndPan="magnify" viewBox="0 0 375 374.999991" height="500" preserveAspectRatio="xMidYMid meet" version="1.0"><defs><g/><clipPath id="id1"><path d="M 10.144531 130.277344 L 122.644531 130.277344 L 122.644531 242.777344 L 10.144531 242.777344 Z M 10.144531 130.277344 " clip-rule="nonzero"/></clipPath></defs><g clip-path="url(#id1)"><path fill="#8c52ff" d="M 66.394531 130.277344 C 35.332031 130.277344 10.144531 155.460938 10.144531 186.527344 C 10.144531 217.589844 35.332031 242.777344 66.394531 242.777344 C 97.460938 242.777344 122.644531 217.589844 122.644531 186.527344 C 122.644531 155.460938 97.460938 130.277344 66.394531 130.277344 " fill-opacity="1" fill-rule="nonzero"/></g><g fill="#ffffff" fill-opacity="1"><g transform="translate(32.946332, 223.917037)"><g><path d="M 34.902344 0.664062 C 42.816406 0.664062 50.304688 -2.597656 55.675781 -7.972656 C 61.171875 -13.464844 64.3125 -20.773438 64.3125 -28.746094 C 64.3125 -36.714844 61.050781 -44.144531 55.675781 -49.636719 C 50.304688 -55.011719 42.816406 -58.273438 34.902344 -58.273438 C 32.488281 -58.273438 29.953125 -57.730469 27.355469 -56.703125 C 24.636719 -55.675781 22.707031 -54.410156 21.4375 -52.898438 L 21.4375 -71.4375 C 21.4375 -73.792969 20.652344 -75.90625 19.203125 -77.417969 C 17.753906 -78.867188 15.640625 -79.773438 13.464844 -79.773438 C 11.292969 -79.773438 9.179688 -78.867188 7.730469 -77.417969 C 6.28125 -75.90625 5.375 -73.792969 5.375 -71.4375 L 5.375 -28.746094 C 5.375 -20.773438 8.574219 -13.34375 14.070312 -7.972656 C 19.566406 -2.476562 26.933594 0.664062 34.902344 0.664062 Z M 34.902344 -15.460938 C 31.28125 -15.460938 27.898438 -16.910156 25.484375 -19.324219 C 23.007812 -21.800781 21.496094 -25.121094 21.496094 -28.746094 C 21.496094 -32.367188 23.007812 -35.6875 25.484375 -38.164062 C 27.898438 -40.582031 31.28125 -42.03125 34.902344 -42.03125 C 38.527344 -42.03125 41.910156 -40.582031 44.324219 -38.164062 C 46.800781 -35.6875 48.25 -32.367188 48.25 -28.746094 C 48.25 -25.121094 46.800781 -21.800781 44.324219 -19.324219 C 41.910156 -16.910156 38.527344 -15.460938 34.902344 -15.460938 Z M 34.902344 -15.460938 "/></g></g></g><g fill="#444444" fill-opacity="1"><g transform="translate(136.146418, 201.150925)"><g><path d="M 26.71875 -7.5625 C 26.71875 -6.320312 26.46875 -5.234375 25.96875 -4.296875 C 25.476562 -3.359375 24.796875 -2.570312 23.921875 -1.9375 C 23.054688 -1.3125 22.050781 -0.832031 20.90625 -0.5 C 19.757812 -0.164062 18.539062 0 17.25 0 L 3.0625 0 L 3.0625 -29.359375 L 18.78125 -29.359375 C 19.800781 -29.359375 20.722656 -29.140625 21.546875 -28.703125 C 22.367188 -28.265625 23.070312 -27.691406 23.65625 -26.984375 C 24.238281 -26.285156 24.6875 -25.488281 25 -24.59375 C 25.320312 -23.695312 25.484375 -22.789062 25.484375 -21.875 C 25.484375 -20.445312 25.125 -19.101562 24.40625 -17.84375 C 23.6875 -16.59375 22.640625 -15.664062 21.265625 -15.0625 C 22.941406 -14.5625 24.269531 -13.671875 25.25 -12.390625 C 26.226562 -11.109375 26.71875 -9.5 26.71875 -7.5625 Z M 20.96875 -8.640625 C 20.96875 -9.171875 20.878906 -9.675781 20.703125 -10.15625 C 20.523438 -10.632812 20.28125 -11.050781 19.96875 -11.40625 C 19.664062 -11.769531 19.304688 -12.054688 18.890625 -12.265625 C 18.484375 -12.472656 18.03125 -12.578125 17.53125 -12.578125 L 8.765625 -12.578125 L 8.765625 -4.84375 L 17.25 -4.84375 C 17.769531 -4.84375 18.253906 -4.9375 18.703125 -5.125 C 19.160156 -5.320312 19.554688 -5.59375 19.890625 -5.9375 C 20.222656 -6.28125 20.484375 -6.6875 20.671875 -7.15625 C 20.867188 -7.625 20.96875 -8.117188 20.96875 -8.640625 Z M 8.765625 -24.484375 L 8.765625 -17.078125 L 16.375 -17.078125 C 17.34375 -17.078125 18.164062 -17.40625 18.84375 -18.0625 C 19.519531 -18.726562 19.859375 -19.640625 19.859375 -20.796875 C 19.859375 -21.929688 19.546875 -22.828125 18.921875 -23.484375 C 18.296875 -24.148438 17.53125 -24.484375 16.625 -24.484375 Z M 8.765625 -24.484375 "/></g></g></g><g fill="#444444" fill-opacity="1"><g transform="translate(164.268189, 201.150925)"><g><path d="M 12.53125 0.40625 C 10.769531 0.40625 9.1875 0.101562 7.78125 -0.5 C 6.375 -1.101562 5.179688 -1.921875 4.203125 -2.953125 C 3.222656 -3.992188 2.46875 -5.1875 1.9375 -6.53125 C 1.414062 -7.882812 1.15625 -9.304688 1.15625 -10.796875 C 1.15625 -12.304688 1.414062 -13.738281 1.9375 -15.09375 C 2.46875 -16.445312 3.222656 -17.640625 4.203125 -18.671875 C 5.179688 -19.703125 6.375 -20.519531 7.78125 -21.125 C 9.1875 -21.738281 10.769531 -22.046875 12.53125 -22.046875 C 14.289062 -22.046875 15.867188 -21.738281 17.265625 -21.125 C 18.660156 -20.519531 19.847656 -19.703125 20.828125 -18.671875 C 21.804688 -17.640625 22.554688 -16.445312 23.078125 -15.09375 C 23.597656 -13.738281 23.859375 -12.304688 23.859375 -10.796875 C 23.859375 -9.304688 23.597656 -7.882812 23.078125 -6.53125 C 22.554688 -5.1875 21.8125 -3.992188 20.84375 -2.953125 C 19.875 -1.921875 18.6875 -1.101562 17.28125 -0.5 C 15.875 0.101562 14.289062 0.40625 12.53125 0.40625 Z M 6.859375 -10.796875 C 6.859375 -9.828125 7.003906 -8.945312 7.296875 -8.15625 C 7.585938 -7.375 7.988281 -6.691406 8.5 -6.109375 C 9.007812 -5.535156 9.609375 -5.085938 10.296875 -4.765625 C 10.984375 -4.453125 11.726562 -4.296875 12.53125 -4.296875 C 13.332031 -4.296875 14.078125 -4.453125 14.765625 -4.765625 C 15.453125 -5.085938 16.050781 -5.535156 16.5625 -6.109375 C 17.070312 -6.691406 17.472656 -7.382812 17.765625 -8.1875 C 18.054688 -8.988281 18.203125 -9.875 18.203125 -10.84375 C 18.203125 -11.78125 18.054688 -12.644531 17.765625 -13.4375 C 17.472656 -14.238281 17.070312 -14.925781 16.5625 -15.5 C 16.050781 -16.082031 15.453125 -16.53125 14.765625 -16.84375 C 14.078125 -17.164062 13.332031 -17.328125 12.53125 -17.328125 C 11.726562 -17.328125 10.984375 -17.160156 10.296875 -16.828125 C 9.609375 -16.503906 9.007812 -16.050781 8.5 -15.46875 C 7.988281 -14.882812 7.585938 -14.191406 7.296875 -13.390625 C 7.003906 -12.597656 6.859375 -11.734375 6.859375 -10.796875 Z M 6.859375 -10.796875 "/></g></g></g><g fill="#444444" fill-opacity="1"><g transform="translate(189.329649, 201.150925)"><g><path d="M 2.484375 -30.1875 L 8.03125 -30.1875 L 8.03125 -6.953125 C 8.03125 -6.148438 8.222656 -5.523438 8.609375 -5.078125 C 8.992188 -4.640625 9.539062 -4.421875 10.25 -4.421875 C 10.582031 -4.421875 10.945312 -4.472656 11.34375 -4.578125 C 11.75 -4.691406 12.128906 -4.832031 12.484375 -5 L 13.234375 -0.78125 C 12.492188 -0.425781 11.625 -0.15625 10.625 0.03125 C 9.632812 0.226562 8.738281 0.328125 7.9375 0.328125 C 6.195312 0.328125 4.851562 -0.128906 3.90625 -1.046875 C 2.957031 -1.972656 2.484375 -3.289062 2.484375 -5 Z M 2.484375 -30.1875 "/></g></g></g><g fill="#444444" fill-opacity="1"><g transform="translate(202.439359, 201.150925)"><g><path d="M 12.53125 0.40625 C 10.769531 0.40625 9.1875 0.101562 7.78125 -0.5 C 6.375 -1.101562 5.179688 -1.921875 4.203125 -2.953125 C 3.222656 -3.992188 2.46875 -5.1875 1.9375 -6.53125 C 1.414062 -7.882812 1.15625 -9.304688 1.15625 -10.796875 C 1.15625 -12.304688 1.414062 -13.738281 1.9375 -15.09375 C 2.46875 -16.445312 3.222656 -17.640625 4.203125 -18.671875 C 5.179688 -19.703125 6.375 -20.519531 7.78125 -21.125 C 9.1875 -21.738281 10.769531 -22.046875 12.53125 -22.046875 C 14.289062 -22.046875 15.867188 -21.738281 17.265625 -21.125 C 18.660156 -20.519531 19.847656 -19.703125 20.828125 -18.671875 C 21.804688 -17.640625 22.554688 -16.445312 23.078125 -15.09375 C 23.597656 -13.738281 23.859375 -12.304688 23.859375 -10.796875 C 23.859375 -9.304688 23.597656 -7.882812 23.078125 -6.53125 C 22.554688 -5.1875 21.8125 -3.992188 20.84375 -2.953125 C 19.875 -1.921875 18.6875 -1.101562 17.28125 -0.5 C 15.875 0.101562 14.289062 0.40625 12.53125 0.40625 Z M 6.859375 -10.796875 C 6.859375 -9.828125 7.003906 -8.945312 7.296875 -8.15625 C 7.585938 -7.375 7.988281 -6.691406 8.5 -6.109375 C 9.007812 -5.535156 9.609375 -5.085938 10.296875 -4.765625 C 10.984375 -4.453125 11.726562 -4.296875 12.53125 -4.296875 C 13.332031 -4.296875 14.078125 -4.453125 14.765625 -4.765625 C 15.453125 -5.085938 16.050781 -5.535156 16.5625 -6.109375 C 17.070312 -6.691406 17.472656 -7.382812 17.765625 -8.1875 C 18.054688 -8.988281 18.203125 -9.875 18.203125 -10.84375 C 18.203125 -11.78125 18.054688 -12.644531 17.765625 -13.4375 C 17.472656 -14.238281 17.070312 -14.925781 16.5625 -15.5 C 16.050781 -16.082031 15.453125 -16.53125 14.765625 -16.84375 C 14.078125 -17.164062 13.332031 -17.328125 12.53125 -17.328125 C 11.726562 -17.328125 10.984375 -17.160156 10.296875 -16.828125 C 9.609375 -16.503906 9.007812 -16.050781 8.5 -15.46875 C 7.988281 -14.882812 7.585938 -14.191406 7.296875 -13.390625 C 7.003906 -12.597656 6.859375 -11.734375 6.859375 -10.796875 Z M 6.859375 -10.796875 "/></g></g></g><g fill="#444444" fill-opacity="1"><g transform="translate(227.50082, 201.150925)"><g><path d="M 3.0625 0 L 3.0625 -29.359375 L 22.78125 -29.359375 L 22.78125 -24.359375 L 8.765625 -24.359375 L 8.765625 -16.796875 L 20.4375 -16.796875 L 20.4375 -12.15625 L 8.765625 -12.15625 L 8.765625 0 Z M 3.0625 0 "/></g></g></g><g fill="#444444" fill-opacity="1"><g transform="translate(251.238908, 201.150925)"><g><path d="M 12.53125 0.40625 C 10.769531 0.40625 9.1875 0.101562 7.78125 -0.5 C 6.375 -1.101562 5.179688 -1.921875 4.203125 -2.953125 C 3.222656 -3.992188 2.46875 -5.1875 1.9375 -6.53125 C 1.414062 -7.882812 1.15625 -9.304688 1.15625 -10.796875 C 1.15625 -12.304688 1.414062 -13.738281 1.9375 -15.09375 C 2.46875 -16.445312 3.222656 -17.640625 4.203125 -18.671875 C 5.179688 -19.703125 6.375 -20.519531 7.78125 -21.125 C 9.1875 -21.738281 10.769531 -22.046875 12.53125 -22.046875 C 14.289062 -22.046875 15.867188 -21.738281 17.265625 -21.125 C 18.660156 -20.519531 19.847656 -19.703125 20.828125 -18.671875 C 21.804688 -17.640625 22.554688 -16.445312 23.078125 -15.09375 C 23.597656 -13.738281 23.859375 -12.304688 23.859375 -10.796875 C 23.859375 -9.304688 23.597656 -7.882812 23.078125 -6.53125 C 22.554688 -5.1875 21.8125 -3.992188 20.84375 -2.953125 C 19.875 -1.921875 18.6875 -1.101562 17.28125 -0.5 C 15.875 0.101562 14.289062 0.40625 12.53125 0.40625 Z M 6.859375 -10.796875 C 6.859375 -9.828125 7.003906 -8.945312 7.296875 -8.15625 C 7.585938 -7.375 7.988281 -6.691406 8.5 -6.109375 C 9.007812 -5.535156 9.609375 -5.085938 10.296875 -4.765625 C 10.984375 -4.453125 11.726562 -4.296875 12.53125 -4.296875 C 13.332031 -4.296875 14.078125 -4.453125 14.765625 -4.765625 C 15.453125 -5.085938 16.050781 -5.535156 16.5625 -6.109375 C 17.070312 -6.691406 17.472656 -7.382812 17.765625 -8.1875 C 18.054688 -8.988281 18.203125 -9.875 18.203125 -10.84375 C 18.203125 -11.78125 18.054688 -12.644531 17.765625 -13.4375 C 17.472656 -14.238281 17.070312 -14.925781 16.5625 -15.5 C 16.050781 -16.082031 15.453125 -16.53125 14.765625 -16.84375 C 14.078125 -17.164062 13.332031 -17.328125 12.53125 -17.328125 C 11.726562 -17.328125 10.984375 -17.160156 10.296875 -16.828125 C 9.609375 -16.503906 9.007812 -16.050781 8.5 -15.46875 C 7.988281 -14.882812 7.585938 -14.191406 7.296875 -13.390625 C 7.003906 -12.597656 6.859375 -11.734375 6.859375 -10.796875 Z M 6.859375 -10.796875 "/></g></g></g><g fill="#444444" fill-opacity="1"><g transform="translate(276.300369, 201.150925)"><g><path d="M 15.421875 -16.875 C 13.742188 -16.84375 12.242188 -16.515625 10.921875 -15.890625 C 9.597656 -15.273438 8.644531 -14.347656 8.0625 -13.109375 L 8.0625 0 L 2.515625 0 L 2.515625 -21.671875 L 7.609375 -21.671875 L 7.609375 -17.046875 C 7.992188 -17.785156 8.445312 -18.453125 8.96875 -19.046875 C 9.5 -19.640625 10.066406 -20.15625 10.671875 -20.59375 C 11.273438 -21.039062 11.882812 -21.378906 12.5 -21.609375 C 13.125 -21.847656 13.726562 -21.96875 14.3125 -21.96875 C 14.613281 -21.96875 14.835938 -21.96875 14.984375 -21.96875 C 15.140625 -21.96875 15.285156 -21.953125 15.421875 -21.921875 Z M 15.421875 -16.875 "/></g></g></g><g fill="#444444" fill-opacity="1"><g transform="translate(292.304964, 201.150925)"><g><path d="M 36.1875 0 L 30.640625 0 L 30.640625 -12.15625 C 30.640625 -13.894531 30.34375 -15.164062 29.75 -15.96875 C 29.164062 -16.769531 28.347656 -17.171875 27.296875 -17.171875 C 26.191406 -17.171875 25.15625 -16.75 24.1875 -15.90625 C 23.226562 -15.0625 22.539062 -13.960938 22.125 -12.609375 L 22.125 0 L 16.578125 0 L 16.578125 -12.15625 C 16.578125 -13.894531 16.28125 -15.164062 15.6875 -15.96875 C 15.101562 -16.769531 14.285156 -17.171875 13.234375 -17.171875 C 12.160156 -17.171875 11.132812 -16.753906 10.15625 -15.921875 C 9.175781 -15.097656 8.476562 -14.007812 8.0625 -12.65625 L 8.0625 0 L 2.515625 0 L 2.515625 -21.671875 L 7.53125 -21.671875 L 7.53125 -17.65625 C 8.332031 -19.0625 9.425781 -20.144531 10.8125 -20.90625 C 12.207031 -21.664062 13.800781 -22.046875 15.59375 -22.046875 C 17.414062 -22.046875 18.820312 -21.601562 19.8125 -20.71875 C 20.800781 -19.832031 21.4375 -18.742188 21.71875 -17.453125 C 22.59375 -18.941406 23.707031 -20.078125 25.0625 -20.859375 C 26.414062 -21.648438 27.960938 -22.046875 29.703125 -22.046875 C 31.023438 -22.046875 32.113281 -21.796875 32.96875 -21.296875 C 33.820312 -20.804688 34.484375 -20.160156 34.953125 -19.359375 C 35.421875 -18.554688 35.742188 -17.644531 35.921875 -16.625 C 36.097656 -15.601562 36.1875 -14.570312 36.1875 -13.53125 Z M 36.1875 0 "/></g></g></g><g fill="#444444" fill-opacity="1"><g transform="translate(330.806972, 201.150925)"><g><path d="M 10.71875 0.40625 C 8.894531 0.40625 7.113281 0.117188 5.375 -0.453125 C 3.632812 -1.035156 2.144531 -1.863281 0.90625 -2.9375 L 2.984375 -6.40625 C 4.304688 -5.46875 5.59375 -4.757812 6.84375 -4.28125 C 8.101562 -3.800781 9.351562 -3.5625 10.59375 -3.5625 C 11.695312 -3.5625 12.5625 -3.765625 13.1875 -4.171875 C 13.820312 -4.585938 14.140625 -5.179688 14.140625 -5.953125 C 14.140625 -6.722656 13.765625 -7.285156 13.015625 -7.640625 C 12.273438 -8.003906 11.066406 -8.421875 9.390625 -8.890625 C 7.984375 -9.273438 6.78125 -9.644531 5.78125 -10 C 4.789062 -10.363281 3.992188 -10.769531 3.390625 -11.21875 C 2.785156 -11.675781 2.34375 -12.203125 2.0625 -12.796875 C 1.789062 -13.390625 1.65625 -14.101562 1.65625 -14.9375 C 1.65625 -16.03125 1.867188 -17.019531 2.296875 -17.90625 C 2.722656 -18.789062 3.320312 -19.539062 4.09375 -20.15625 C 4.863281 -20.78125 5.765625 -21.253906 6.796875 -21.578125 C 7.835938 -21.910156 8.960938 -22.078125 10.171875 -22.078125 C 11.796875 -22.078125 13.316406 -21.84375 14.734375 -21.375 C 16.160156 -20.914062 17.46875 -20.160156 18.65625 -19.109375 L 16.421875 -15.765625 C 15.316406 -16.585938 14.242188 -17.191406 13.203125 -17.578125 C 12.171875 -17.960938 11.148438 -18.15625 10.140625 -18.15625 C 9.203125 -18.15625 8.414062 -17.960938 7.78125 -17.578125 C 7.144531 -17.191406 6.828125 -16.570312 6.828125 -15.71875 C 6.828125 -15.332031 6.898438 -15.015625 7.046875 -14.765625 C 7.203125 -14.515625 7.441406 -14.289062 7.765625 -14.09375 C 8.097656 -13.90625 8.535156 -13.722656 9.078125 -13.546875 C 9.617188 -13.367188 10.285156 -13.179688 11.078125 -12.984375 C 12.566406 -12.597656 13.84375 -12.210938 14.90625 -11.828125 C 15.96875 -11.441406 16.835938 -11 17.515625 -10.5 C 18.191406 -10.007812 18.6875 -9.4375 19 -8.78125 C 19.320312 -8.132812 19.484375 -7.359375 19.484375 -6.453125 C 19.484375 -4.328125 18.695312 -2.648438 17.125 -1.421875 C 15.550781 -0.203125 13.414062 0.40625 10.71875 0.40625 Z M 10.71875 0.40625 "/></g></g></g></svg>