<?xml version="1.0" encoding="UTF-8"?>
<svg width="48px" height="48px" viewBox="0 0 48 48" version="1.1" xmlns="http://www.w3.org/2000/svg" xmlns:xlink="http://www.w3.org/1999/xlink">
    <!-- Generator: Sketch 53.2 (72643) - https://sketchapp.com -->
    <title>5-Icons/Process Management/z-Features/Dynamic Case Routing</title>
    <desc>Created with Sketch.</desc>
    <g id="5-Icons/Process-Management/z-Features/Dynamic-Case-Routing" stroke="none" stroke-width="1" fill="none" fill-rule="evenodd">
        <g id="Dynamic-Case-Routing">
            <path d="M33.2964845,15.4251672 C37.2878281,19.2022781 38.9322948,25.8181861 37.4778921,31.6707201 C36.0234894,37.5312059 31.4784811,42.6283178 25.7930889,45.1569941 C20.0994331,47.6856705 13.2653933,47.6379596 8.59643023,44.8548253 C3.92746715,42.0796427 1.42358076,36.5690366 0.448469888,31.1140932 C-0.534904637,25.651198 0.0104963601,20.2360137 2.96888358,16.6895054 C5.91900716,13.1350452 11.282117,11.4492609 17.1327822,11.0755257 C22.9751838,10.7017905 29.3051408,11.6480562 33.2964845,15.4251672 Z" id="Path-" fill="#FFE5B2"></path>
            <rect id="Rectangle" stroke="#CC4E00" stroke-width="3" stroke-linecap="round" stroke-linejoin="round" x="22" y="1.5" width="17" height="12"></rect>
            <path d="M19.5,19.5 L40.5,19.5" id="Line-2" stroke="#CC4E00" stroke-width="3" stroke-linecap="round" stroke-linejoin="round"></path>
            <path d="M19.5,19.5 L19.5,24.6318359" id="Line" stroke="#CC4E00" stroke-width="3" stroke-linecap="round" stroke-linejoin="round"></path>
            <path d="M40.5,19.5 L40.5,24.6318359" id="Line" stroke="#CC4E00" stroke-width="3" stroke-linecap="round" stroke-linejoin="round"></path>
            <path d="M30.5,13.5 L30.5,18.6318359" id="Line" stroke="#CC4E00" stroke-width="3" stroke-linecap="round" stroke-linejoin="round"></path>
            <rect id="Rectangle" stroke="#CC4E00" stroke-width="3" stroke-linecap="round" stroke-linejoin="round" x="13.5" y="25.5" width="12" height="9"></rect>
            <rect id="Rectangle" stroke="#CC4E00" stroke-width="3" stroke-linecap="round" stroke-linejoin="round" x="34.5" y="25.5" width="12" height="9"></rect>
        </g>
    </g>
</svg>