<?xml version="1.0" encoding="UTF-8"?>
<svg width="48px" height="48px" viewBox="0 0 48 48" version="1.1" xmlns="http://www.w3.org/2000/svg" xmlns:xlink="http://www.w3.org/1999/xlink">
    <!-- Generator: Sketch 53.2 (72643) - https://sketchapp.com -->
    <title>5-Icons/Process Management/z-Features/Instant Access</title>
    <desc>Created with Sketch.</desc>
    <g id="5-Icons/Process-Management/z-Features/Instant-Access" stroke="none" stroke-width="1" fill="none" fill-rule="evenodd">
        <g id="Instant-Access">
            <path d="M33.2964845,15.4251672 C37.2878281,19.2022781 38.9322948,25.8181861 37.4778921,31.6707201 C36.0234894,37.5312059 31.4784811,42.6283178 25.7930889,45.1569941 C20.0994331,47.6856705 13.2653933,47.6379596 8.59643023,44.8548253 C3.92746715,42.0796427 1.42358076,36.5690366 0.448469888,31.1140932 C-0.534904637,25.651198 0.0104963601,20.2360137 2.96888358,16.6895054 C5.91900716,13.1350452 11.282117,11.4492609 17.1327822,11.0755257 C22.9751838,10.7017905 29.3051408,11.6480562 33.2964845,15.4251672 Z" id="Path-" fill="#BEEDC0"></path>
            <path d="M41.3454331,3.82447516 L41.3454331,5.99806007" id="Path" stroke="#2D6B30" stroke-width="3" stroke-linecap="round" stroke-linejoin="round" transform="translate(41.345433, 4.911268) rotate(40.000000) translate(-41.345433, -4.911268) "></path>
            <path d="M45.1865525,10.0452783 L43.6495943,11.5822311" id="Path" stroke="#2D6B30" stroke-width="3" stroke-linecap="round" stroke-linejoin="round" transform="translate(44.418073, 10.813755) rotate(40.000000) translate(-44.418073, -10.813755) "></path>
            <path d="M43.5038623,17.160132 L41.3302774,17.160132" id="Path" stroke="#2D6B30" stroke-width="3" stroke-linecap="round" stroke-linejoin="round" transform="translate(42.417070, 17.160132) rotate(40.000000) translate(-42.417070, -17.160132) "></path>
            <path d="M34.2305805,2.14178736 L35.7675387,3.67874011" id="Path" stroke="#2D6B30" stroke-width="3" stroke-linecap="round" stroke-linejoin="round" transform="translate(34.999060, 2.910264) rotate(40.000000) translate(-34.999060, -2.910264) "></path>
            <path d="M28.0097763,5.98290439 L30.1833612,5.98290439" id="Path" stroke="#2D6B30" stroke-width="3" stroke-linecap="round" stroke-linejoin="round" transform="translate(29.096569, 5.982904) rotate(40.000000) translate(-29.096569, -5.982904) "></path>
            <path d="M26.7567045,17.2857507 L26.7567045,20.5461281" id="Path" stroke="#2D6B30" stroke-width="3" stroke-linecap="round" stroke-linejoin="round" transform="translate(26.756705, 18.915939) rotate(40.000000) translate(-26.756705, -18.915939) "></path>
            <path d="M32.0199106,20.8835348 L32.0199106,19.5250442 C32.0199106,18.4746647 32.8714125,17.6231574 33.9217974,17.6231574 L33.9217974,17.6231574 C34.9721768,17.6231574 35.8236842,18.4746593 35.8236842,19.5250442 L35.8236842,20.8835348" id="Path" stroke="#2D6B30" stroke-width="3" stroke-linecap="round" stroke-linejoin="round" transform="translate(33.921797, 19.253346) rotate(40.000000) translate(-33.921797, -19.253346) "></path>
            <path d="M34.2351935,23.6178025 L34.2351935,22.8025941 C34.2351935,21.7522146 35.0866954,20.9007073 36.1370803,20.9007073 L36.1370803,20.9007073 C37.1874597,20.9007073 38.0389671,21.7522092 38.0389671,22.8025941 L38.0389671,24.1610846" id="Path" stroke="#2D6B30" stroke-width="3" stroke-linecap="round" stroke-linejoin="round" transform="translate(36.137080, 22.530896) rotate(40.000000) translate(-36.137080, -22.530896) "></path>
            <path d="M37.9105038,20.9819589 C37.9105038,19.9315794 38.7620057,19.0800721 39.8123906,19.0800721 L39.8123906,19.0800721 C40.8161902,19.0800721 41.5872694,19.9691335 41.4453072,20.9628422 L39.5406925,34.2951664 L26.4991831,34.2951664 C26.4991831,32.2121494 22.6954095,29.2234701 22.6954095,26.6876193 L22.6954095,22.8838511 C22.6954095,21.9835197 23.4252722,21.2536624 24.3255982,21.253657 L26.4991831,21.2536516 L26.4991831,10.1140344 C26.4991831,9.06364946 27.3506904,8.21214758 28.4010699,8.21214758 L28.4010753,8.21214758 C29.4514548,8.21214758 30.3029567,9.06364946 30.3029567,10.1140344 L30.3029567,19.6234683" id="Path" stroke="#2D6B30" stroke-width="3" stroke-linecap="round" stroke-linejoin="round" transform="translate(32.078803, 21.253657) rotate(40.000000) translate(-32.078803, -21.253657) "></path>
        </g>
    </g>
</svg>