<svg xmlns="http://www.w3.org/2000/svg" width="48" height="48" viewBox="0 0 48 48">
  <g fill="none" fill-rule="evenodd">
    <path fill="#BEEDC0" d="M33.2964845,15.4251672 C37.2878281,19.2022781 38.9322948,25.8181861 37.4778921,31.6707201 C36.0234894,37.5312059 31.4784811,42.6283178 25.7930889,45.1569941 C20.0994331,47.6856705 13.2653933,47.6379596 8.59643023,44.8548253 C3.92746715,42.0796427 1.42358076,36.5690366 0.448469888,31.1140932 C-0.534904637,25.651198 0.0104963601,20.2360137 2.96888358,16.6895054 C5.91900716,13.1350452 11.282117,11.4492609 17.1327822,11.0755257 C22.9751838,10.7017905 29.3051408,11.6480562 33.2964845,15.4251672 Z"/>
    <circle cx="30" cy="18" r="4.8" stroke="#2D6B30" stroke-linecap="round" stroke-linejoin="round" stroke-width="3"/>
    <path stroke="#2D6B30" stroke-linecap="round" stroke-linejoin="round" stroke-width="3" d="M46,18 L46,18 C46.000072,16.7667563 45.0546101,15.7394331 43.8256,15.6373333 L41.3456,15.4298667 C41.0540202,14.1427677 40.5442581,12.9150815 39.8384,11.8 L41.4506667,9.89333333 C42.2474815,8.95220974 42.1897404,7.55737904 41.3178667,6.68533333 L41.3178667,6.68533333 C40.445711,5.81371051 39.0510792,5.75597762 38.1098667,6.55253333 L36.2042667,8.1648 C35.0883523,7.45664183 33.8591084,6.94538892 32.5701334,6.65333333 L32.3626667,4.17333333 C32.2600434,2.94474519 31.2328668,1.99988182 30,2 L30,2 C28.7667564,1.99992801 27.7394332,2.94538999 27.6373334,4.1744 L27.4298667,6.6544 C26.1427678,6.9459798 24.9150816,7.45574195 23.8,8.1616 L21.8933334,6.55253333 C20.9519849,5.75612043 19.5573471,5.81408543 18.6853334,6.68586667 L18.6853334,6.68586667 C17.8137106,7.5580224 17.7559777,8.95265416 18.5525334,9.89386667 L20.1648,11.7994667 C19.4571182,12.9142825 18.9458847,14.142217 18.6533334,15.4298667 L16.1706667,15.6373333 C14.9431333,15.741264 13.9997654,16.7680748 14,18 L14,18 C13.9999281,19.2332437 14.94539,20.2605669 16.1744,20.3626667 L18.6581334,20.5701333 C18.9494719,21.857309 19.4592507,23.0850351 20.1653334,24.2 L18.5525334,26.1066667 C17.7561205,27.0480151 17.8140855,28.442653 18.6858667,29.3146667 L18.6858667,29.3146667 C19.5580224,30.1862895 20.9526542,30.2440224 21.8938667,29.4474667 L23.7994667,27.8352 C24.9142826,28.5428819 26.142217,29.0541153 27.4298667,29.3466667 L27.6373334,31.8304 C27.7417864,33.0575114 28.7684511,34.0002816 30,34 L30,34 C31.2332437,34.000072 32.2605669,33.05461 32.3626667,31.8256 L32.5701334,29.3418667 C33.8573091,29.0505281 35.0850352,28.5407494 36.2,27.8346667 L38.1066667,29.4474667 C39.0480152,30.2438796 40.442653,30.1859146 41.3146667,29.3141333 L41.3146667,29.3141333 C42.1862895,28.4419776 42.2440224,27.0473458 41.4474667,26.1061333 L39.8352,24.2005333 C40.5428819,23.0857175 41.0541154,21.857783 41.3466667,20.5701333 L43.8304,20.3626667 C45.0575115,20.2582136 46.0002816,19.231549 46,18 Z"/>
  </g>
</svg>
