<?xml version="1.0" encoding="UTF-8"?>
<svg width="48px" height="48px" viewBox="0 0 48 48" version="1.1" xmlns="http://www.w3.org/2000/svg" xmlns:xlink="http://www.w3.org/1999/xlink">
    <!-- Generator: Sketch 53.2 (72643) - https://sketchapp.com -->
    <title>5-Icons/Process Management/z-Features/Social Tasks</title>
    <desc>Created with Sketch.</desc>
    <defs>
        <polygon id="path-1" points="0.0160006919 0.313381426 5.54079916 0.313381426 5.54079916 5.83801409 0.0160006919 5.83801409"></polygon>
        <polygon id="path-3" points="0.31313271 0.266291307 5.83735085 0.266291307 5.83735085 5.79108978 0.31313271 5.79108978"></polygon>
        <polygon id="path-5" points="0 0.266291307 5.52463266 0.266291307 5.52463266 5.79108978 0 5.79108978"></polygon>
    </defs>
    <g id="5-Icons/Process-Management/z-Features/Social-Tasks" stroke="none" stroke-width="1" fill="none" fill-rule="evenodd">
        <g id="Social-Tasks" transform="translate(-1.000000, 0.000000)">
            <path d="M33.2964845,16.4251672 C37.2878281,20.2022781 38.9322948,26.8181861 37.4778921,32.6707201 C36.0234894,38.5312059 31.4784811,43.6283178 25.7930889,46.1569941 C20.0994331,48.6856705 13.2653933,48.6379596 8.59643023,45.8548253 C3.92746715,43.0796427 1.42358076,37.5690366 0.448469888,32.1140932 C-0.534904637,26.651198 0.0104963601,21.2360137 2.96888358,17.6895054 C5.91900716,14.1350452 11.282117,12.4492609 17.1327822,12.0755257 C22.9751838,11.7017905 29.3051408,12.6480562 33.2964845,16.4251672 Z" id="Path-Copy-6" fill="#B2D4FF"></path>
            <g id="Group-24" transform="translate(12.000000, -0.000000)">
                <path d="M17.2324964,10.9816976 C19.6815142,10.9816976 21.6670923,12.9672757 21.6670923,15.4162935 C21.6670923,17.8653113 19.6815142,19.8508894 17.2324964,19.8508894 C14.7826495,19.8508894 12.7970715,17.8653113 12.7970715,15.4162935 C12.7970715,12.9672757 14.7826495,10.9816976 17.2324964,10.9816976 Z" id="Stroke-1" stroke="#0D48A6" stroke-width="3" stroke-linecap="round"></path>
                <path d="M18.7101147,20.4347903 L15.7545465,20.4347903 C12.4889131,20.4347903 9.84175197,23.0819514 9.84175197,26.3475848 L24.6229092,26.3475848 C24.6229092,23.0819514 21.9749191,20.4347903 18.7101147,20.4347903 Z" id="Stroke-3" stroke="#0D48A6" stroke-width="3" stroke-linecap="round"></path>
                <path d="M31.0251757,26.4915911 C29.4557814,29.6278925 26.8492438,32.1540121 23.6540798,33.620604" id="Stroke-5" stroke="#0D48A6" stroke-width="3" stroke-linecap="round"></path>
                <path d="M23.6544114,5.58880124 C26.971446,7.11093959 29.6550854,9.77716887 31.2012662,13.0809387" id="Stroke-7" stroke="#0D48A6" stroke-width="3" stroke-linecap="round"></path>
                <path d="M3.78470251,12.0657652 C5.19077367,9.56285908 7.27500886,7.49271776 9.78786363,6.10488573" id="Stroke-9" stroke="#0D48A6" stroke-width="3" stroke-linecap="round"></path>
                <path d="M10.3855268,33.4179009 C7.60654652,32.0383594 5.30344175,29.8438604 3.78710676,27.1486143" id="Stroke-11" stroke="#0D48A6" stroke-width="3" stroke-linecap="round"></path>
                <g id="Group-15" transform="translate(14.093874, 0.515836)">
                    <mask id="mask-2" fill="white">
                        <use xlink:href="#path-1"></use>
                    </mask>
                    <g id="Clip-14"></g>
                    <path d="M5.54079916,3.07561485 C5.54079916,4.60106941 4.30385449,5.83801409 2.77839993,5.83801409 C1.25294537,5.83801409 0.0160006919,4.60106941 0.0160006919,3.07561485 C0.0160006919,1.55016029 1.25294537,0.313215616 2.77839993,0.313215616 C4.30385449,0.313215616 5.54079916,1.55016029 5.54079916,3.07561485" id="Fill-13" fill="#0D48A6" mask="url(#mask-2)"></path>
                </g>
                <g id="Group-18" transform="translate(29.845850, 16.267812)">
                    <mask id="mask-4" fill="white">
                        <use xlink:href="#path-3"></use>
                    </mask>
                    <g id="Clip-17"></g>
                    <path d="M5.83793118,3.02869054 C5.83793118,4.5541451 4.60098651,5.79108978 3.07553195,5.79108978 C1.54924833,5.79108978 0.31313271,4.5541451 0.31313271,3.02869054 C0.31313271,1.50323598 1.54924833,0.266291307 3.07553195,0.266291307 C4.60098651,0.266291307 5.83793118,1.50323598 5.83793118,3.02869054" id="Fill-16" fill="#0D48A6" mask="url(#mask-4)"></path>
                </g>
                <g id="Group-21" transform="translate(0.000000, 16.267812)">
                    <mask id="mask-6" fill="white">
                        <use xlink:href="#path-5"></use>
                    </mask>
                    <g id="Clip-20"></g>
                    <path d="M5.52463266,3.02869054 C5.52463266,4.5541451 4.28851704,5.79108978 2.76223343,5.79108978 C1.23677887,5.79108978 -0.000165810278,4.5541451 -0.000165810278,3.02869054 C-0.000165810278,1.50323598 1.23677887,0.266291307 2.76223343,0.266291307 C4.28851704,0.266291307 5.52463266,1.50323598 5.52463266,3.02869054" id="Fill-19" fill="#0D48A6" mask="url(#mask-6)"></path>
                </g>
                <path d="M19.6346728,35.0605833 C19.6346728,36.5868669 18.3977281,37.8229826 16.8722736,37.8229826 C15.346819,37.8229826 14.1098743,36.5868669 14.1098743,35.0605833 C14.1098743,33.5351288 15.346819,32.2981841 16.8722736,32.2981841 C18.3977281,32.2981841 19.6346728,33.5351288 19.6346728,35.0605833" id="Fill-22" fill="#0D48A6"></path>
            </g>
        </g>
    </g>
</svg>