<svg xmlns="http://www.w3.org/2000/svg" id="Layer_1" x="0" y="0" viewBox="0 0 380 65" xml:space="preserve"><style>.st0{fill:#feb933}</style><path class="st0" d="M33.6.5L44 21.6 67.2 25 50.4 41.3l4 23.2-20.8-11-20.8 11 4-23.2L0 25l23.2-3.4zM111.8.5l10.4 21.1 23.2 3.4-16.8 16.3 4 23.2-20.8-11-20.8 11 4-23.2L78.2 25l23.2-3.4zM190 .5l10.4 21.1 23.2 3.4-16.8 16.3 4 23.2-20.8-11-20.8 11 4-23.2L156.4 25l23.2-3.4zM268.2.5l10.4 21.1 23.2 3.4L285 41.3l4 23.2-20.8-11-20.8 11 4-23.2L234.6 25l23.2-3.4zM346.4.5l10.4 21.1L380 25l-16.8 16.3 4 23.2-20.8-11-20.8 11 4-23.2L312.8 25l23.2-3.4z"></path></svg>